<?xml version="1.0" standalone="no"?><!DOCTYPE svg PUBLIC "-//W3C//DTD SVG 1.1//EN" "http://www.w3.org/Graphics/SVG/1.1/DTD/svg11.dtd"><svg t="1634280975130" class="icon" viewBox="0 0 1024 1024" version="1.1" xmlns="http://www.w3.org/2000/svg" p-id="5450" xmlns:xlink="http://www.w3.org/1999/xlink" width="200" height="200"><defs><style type="text/css"></style></defs><path d="M937.72836324 398.47531638l-58.34567416-38.6111079h-250.54318916v-6.86419699h-10.29629544v-12.01234468c0-2.57407386 0-4.29012309-0.85802462-6.00617235 6.86419697-0.85802462 12.87036929-2.57407386 18.87654163-6.86419697 17.16049241-3.43209849 30.03086171-18.01851702 30.03086173-36.03703403V184.82718591c0-4.29012309-0.85802462-8.5802462-2.57407386-12.8703693-3.43209849-0.85802462-6.86419697-1.71604925-11.15432006-2.57407385v-0.85802464c0-0.85802462-0.85802462-1.71604925-0.85802463-2.57407387 0-0.85802462-0.85802462-0.85802462-0.85802464-1.71604923-0.85802462-0.85802462-0.85802462-1.71604925-1.71604923-2.57407386-0.85802462-0.85802462-0.85802462-1.71604925-1.71604921-2.57407386-0.85802462-0.85802462-0.85802462-1.71604925-1.71604926-2.57407387-0.85802462-0.85802462-1.71604925-1.71604925-1.71604926-2.57407386l-2.57407385-2.57407385c-0.85802462-0.85802462-1.71604925-0.85802462-2.57407386-1.71604925-0.85802462-0.85802462-1.71604925-1.71604925-2.57407387-1.71604923-0.85802462-0.85802462-1.71604925-0.85802462-2.57407383-1.71604923-0.85802462-0.85802462-1.71604925-0.85802462-2.57407388-1.71604926-0.85802462-0.85802462-1.71604925-0.85802462-3.43209848-1.71604924-0.85802462 0-1.71604925-0.85802462-2.57407387-0.85802461-0.85802462 0-2.57407386-0.85802462-4.2901231-0.85802463-0.85802462 0-1.71604925 0-2.57407385-0.85802462-1.71604925 0-4.29012309-0.85802462-6.00617235-0.85802462H505.28395456c-23.16666475 0-42.90123101 18.87654164-42.90123098 42.90123102v108.11110218c0 2.57407386 0 5.14814772 0.85802461 7.72222158 0 0.85802462 0 1.71604925 0.85802462 2.57407386 0 1.71604925 0.85802462 3.43209849 1.71604923 5.14814772 0 0.85802462 0.85802462 1.71604925 0.85802462 2.57407386l2.57407387 5.14814772c0 0.85802462 0.85802462 0.85802462 0.85802464 1.71604922 1.71604925 1.71604925 2.57407386 4.29012309 5.1481477 6.00617236l0.85802463 0.85802462c1.71604925 1.71604925 2.57407386 2.57407386 4.29012308 3.43209849 0.85802462 0.85802462 0.85802462 0.85802462 1.71604924 0.85802461 1.71604925 0.85802462 3.43209849 1.71604925 4.29012311 2.57407386 0.85802462 0 1.71604925 0.85802462 2.57407386 0.85802461h0.85802462c0.85802462 0 2.57407386 0.85802462 3.4320985 0.85802463 0.85802462 0 2.57407386 0.85802462 3.43209846 0.85802464h3.43209849c-0.85802462 1.71604925-0.85802462 4.29012309-0.85802463 6.00617233v18.87654165H332.8210059l-2.57407387 13.72839393 34.32098482 23.16666474 5.14814773 3.43209849h-1.71604924l19.73456626 12.8703693-53.19752649 36.03703407-4.29012308 1.71604925 2.57407387 10.29629543H381.72840924l-3.43209847 1.71604923h120.98147146v27.45678785H203.25928822l-58.3456742 38.61110791c-3.43209849 2.57407386-5.14814772 6.00617233-5.1481477 10.29629544s1.71604925 7.72222158 5.1481477 10.29629547l58.3456742 38.61110791h7.72222158l15.44444316 10.29629543h273.7098539v19.73456627H258.17286392l-1.71604922 9.43827081 34.32098479 23.16666478 5.14814772 3.43209847h-1.71604923l19.73456626 12.87036932-53.19752645 36.03703403-4.29012309 2.57407387 2.57407386 10.29629544h48.90740335l-3.43209849 1.71604922h195.62961344v154.44443169c0 12.87036929 10.29629546 24.02468937 24.02468937 24.02468938H544.75308713v1.71604923h62.63579729c12.01234468 0 22.30864012-10.29629546 22.30864013-22.30864012v-158.7345548h174.17899793l53.19752644-35.17900941h-0.85802458l4.29012308-2.57407387 3.43209848-2.57407384c3.43209849-2.57407386 5.14814772-6.00617233 5.14814773-10.29629546s-1.71604925-7.72222158-5.14814773-10.29629545l-58.34567418-38.61110791h-175.89504717V594.96295444h110.68517602l-13.72839393-10.29629543h24.88271397l1.71604926-10.29629546-4.29012309-1.71604922-47.19135411-30.88888634 13.72839392-9.43827084h-13.72839392l47.19135411-31.74691095 4.29012309-2.57407387-2.57407387-10.29629542h-120.98147145v-27.45678784h248.82713991l53.19752644-35.17900946h-0.85802461l4.29012309-2.57407386 3.43209851-2.57407385c0.85802462-0.85802462 1.71604925-0.85802462 1.71604921-1.71604924l1.71604926-1.71604925v-0.85802463c0-0.85802462 0.85802462-1.71604925 0.85802462-1.71604923v-0.85802463-2.57407385c0-6.00617233-1.71604925-9.43827083-5.14814774-12.01234469z m-223.94442592 440.16663025c-0.85802462-0.85802462-2.57407386-1.71604925-3.43209845-1.71604922h-0.85802463l-14.58641855 3.43209845-3.43209847-14.58641852c0-0.85802462-0.85802462-1.71604925-0.85802466-1.71604924l-0.85802457-0.85802461c-0.85802462-0.85802462-1.71604925-0.85802462-1.71604925-0.85802464h-0.85802464c-0.85802462 0-1.71604925 0-1.71604925 0.85802464-0.85802462 0.85802462-1.71604925 0.85802462-1.71604924 1.71604922v0.85802463l-0.85802463 14.58641852-14.58641853-1.71604923c-2.57407386 0-4.29012309 0.85802462-5.14814773 3.43209848-0.85802462 2.57407386 0.85802462 4.29012309 2.57407387 5.14814771l13.72839393 5.14814772-6.00617234 13.72839393c-0.85802462 1.71604925 0 4.29012309 1.71604923 6.00617236 0.85802462 0.85802462 1.71604925 0.85802462 2.57407386 0.8580246 1.71604925 0 2.57407386-0.85802462 3.43209848-1.71604924l9.43827081-11.15432006 6.00617238 5.14814773 5.14814773 4.29012311c1.71604925 1.71604925 4.29012309 1.71604925 6.00617232 0s1.71604925-4.29012309 0.85802463-6.00617235l-7.72222159-12.8703693 12.87036929-7.72222158c1.71604925-0.85802462 2.57407386-3.43209849 1.71604927-6.00617233-0.85802462 2.57407386-0.85802462 2.57407386-1.71604927 1.71604922z m132.13579154-14.58641853v-3.43209849-1.71604924c0-0.85802462 0-1.71604925-0.85802463-2.57407386 0-0.85802462 0-1.71604925-0.85802461-2.57407386 0-0.85802462 0-1.71604925-0.85802462-2.57407385v-0.85802465-0.85802462c0-0.85802462 0-1.71604925-0.8580246-2.57407386 0-0.85802462-0.85802462-1.71604925-0.85802462-3.43209848 0-0.85802462-0.85802462-1.71604925-0.85802464-2.57407386l-2.57407385-5.14814774c0-0.85802462-0.85802462-1.71604925-0.85802463-2.57407384-0.85802462-1.71604925-1.71604925-3.43209849-2.57407385-4.29012312-0.85802462-0.85802462-0.85802462-1.71604925-1.71604924-2.57407386-1.71604925-2.57407386-3.43209849-4.29012309-5.14814773-6.00617231-6.00617233-6.86419697-16.30246778-16.30246778-30.0308617-23.16666476-0.85802462 0-1.71604925-0.85802462-2.57407387-0.85802462-6.00617233-2.57407386-17.16049241-7.72222158-34.32098482-8.58024621-30.03086171-2.57407386-52.33950186 14.58641855-59.20369878 20.59259088-3.43209849 2.57407386-3.43209849 5.14814772-4.29012312 6.86419697v2.57407385c0.85802462 2.57407386 2.57407386 4.29012309 2.57407385 4.2901231l30.03086174 30.03086173c-1.71604925 0-3.43209849 0-4.29012313 0.85802462-6.00617233 2.57407386-7.72222158 8.5802462-7.72222157 9.43827083l-0.8580246 2.57407386 30.03086168 14.58641854c-1.71604925 4.29012309 0 8.5802462 3.43209848 10.29629546 0.85802462 0.85802462 2.57407386 0.85802462 3.43209849 0.85802461 2.57407386 0 5.14814772-1.71604925 6.86419696-4.2901231l27.45678786 13.72839391 1.71604923-0.85802462c0.85802462-0.85802462 1.71604925-1.71604925 2.57407388-1.71604923 0.85802462-0.85802462 0.85802462-1.71604925 1.71604924-1.71604924 0-0.85802462 0.85802462-0.85802462 0.85802461-1.71604925v-0.85802463-1.71604922-0.85802462c0-0.85802462-0.85802462-1.71604925-1.71604924-2.57407387v-0.85802463c0-0.85802462-0.85802462-0.85802462-0.85802461-1.71604924l43.75925562 6.86419696h0.85802462c1.71604925 0 4.29012309 0 6.86419696-2.57407383 1.71604925-0.85802462 3.43209849-3.43209849 3.43209847-7.7222216-0.85802462-5.14814772-0.85802462-10.29629546-1.71604923-18.01851701z" fill="#C4ADAD" p-id="5451"></path><path d="M892.25305838 405.33951334l-3.43209848 2.57407387-53.19752648 35.17900942H295.92594721s-0.85802462-0.85802462 0-0.85802462l52.33950186-34.3209848 3.43209849-2.57407387c3.43209849-2.57407386 3.43209849-7.72222158 0-9.43827081l-24.88271401-16.30246779-30.88888634-20.5925909v-0.85802461h539.69748621l56.62962496 37.7530833c3.43209849 1.71604925 3.43209849 6.86419697 0 9.43827081z" fill="#FFFFFF" p-id="5452"></path><path d="M837.33948266 449.09876899H290.77779949l-2.57407386-10.29629545 5.14814773-2.57407388 54.05555107-36.03703404-58.34567418-38.6111079 1.71604924-9.43827083H838.19750729l58.34567419 38.61110792c3.43209849 2.57407386 5.14814772 6.00617233 5.14814771 10.29629545s-1.71604925 7.72222158-5.14814771 10.29629541l-59.20369882 37.75308332z m-521.67896919-12.87036933h518.2468707l54.05555111-36.03703404-54.05555111-36.03703404H315.66051347l38.61110795 25.7407386c3.43209849 2.57407386 5.14814772 6.00617233 5.14814771 10.29629544s-1.71604925 7.72222158-5.14814771 10.29629545l-38.61110795 25.74073859z" fill="#961919" p-id="5453"></path><path d="M888.8209599 415.63580878l-53.19752648 35.17900946H337.11112901l24.88271398-16.30246781c3.43209849-2.57407386 3.43209849-7.72222158 0-9.43827082L347.40742443 415.63580878l3.43209849-2.57407386c3.43209849-2.57407386 3.43209849-7.72222158 0-9.43827081l-24.88271398-16.30246777h519.96291992l42.90123104 28.31481244z" fill="#F9F18F" p-id="5454"></path><path d="M888.8209599 407.05556259l-53.19752648 35.17900942H337.11112901l24.88271398-16.30246779c3.43209849-2.57407386 3.43209849-7.72222158 0-9.43827081l-8.58024621-6.00617234h451.32095032l45.47530486-30.03086171 38.61110794 26.59876323z" fill="#FFD527" p-id="5455"></path><path d="M837.33948266 449.09876899H290.77779949l-2.57407386-10.29629545 5.14814773-2.57407388 54.05555107-36.03703404-58.34567418-38.6111079 1.71604924-9.43827083H838.19750729l58.34567419 38.61110792c3.43209849 2.57407386 5.14814772 6.00617233 5.14814771 10.29629545s-1.71604925 7.72222158-5.14814771 10.29629541l-59.20369882 37.75308332z m-521.67896919-12.87036933h518.2468707l54.05555111-36.03703404-54.05555111-36.03703404H315.66051347l38.61110795 25.7407386c3.43209849 2.57407386 5.14814772 6.00617233 5.14814771 10.29629544s-1.71604925 7.72222158-5.14814771 10.29629545l-38.61110795 25.74073859z" fill="#961919" p-id="5456"></path><path d="M703.48764191 569.22221583c0.85802462 0 0 0.85802462 0 0l-540.55551084 0.85802463-53.19752648-35.17900944-3.43209848-2.57407387c-3.43209849-2.57407386-3.43209849-7.72222158 0-9.43827082l56.62962496-37.7530833h539.69748622s0.85802462 0.85802462 0 0.85802464l-30.88888636 20.59259088-24.88271398 16.30246778c-1.71604925 0.85802462-2.57407386 2.57407386-2.57407388 5.14814773s0.85802462 3.43209849 2.57407388 5.14814771l3.43209847 2.57407386 53.19752649 33.4629602z" fill="#FFFFFF" p-id="5457"></path><path d="M703.48764191 576.94443742H161.21608184l-58.34567421-38.61110794c-3.43209849-2.57407386-5.14814772-6.00617233-5.14814772-10.29629542s1.71604925-7.72222158 5.14814772-10.29629546l58.34567421-38.61110789h547.41970778l2.57407386 10.29629544-5.14814773 2.57407385-54.05555108 36.03703406 2.57407385 1.71604924 51.48147723 34.32098481 4.29012312 1.71604924-2.57407388 10.29629545-4.29012308 0.85802462z m-537.98143697-12.87036931h518.24687067l-38.6111079-25.74073863c-3.43209849-2.57407386-5.14814772-6.00617233-5.14814772-10.29629542s1.71604925-7.72222158 5.14814772-10.29629546l38.6111079-25.7407386H165.50620494l-54.05555111 36.03703406 2.57407388 1.71604924 51.48147723 34.32098481z m-54.91357572-36.03703405z" fill="#961919" p-id="5458"></path><path d="M697.48146955 587.24073285H184.38274659l-53.19752649-35.17900943 42.0432064-28.31481249h499.37032905l-24.88271396 16.30246784c-3.43209849 2.57407386-3.43209849 7.72222158 0 9.4382708l7.72222156 5.14814771h-0.85802463l42.90123103 32.60493557z" fill="#F9F18F" p-id="5459"></path><path d="M697.48146955 570.08024046H184.38274659l-31.74691098-21.4506155h497.65427981s0.85802462-0.85802462 0-0.85802462l-52.33950186-34.32098484-3.43209847-2.57407386c-1.71604925-0.85802462-2.57407386-2.57407386-2.57407385-5.14814773h80.65431431l-24.88271396 16.30246781c-3.43209849 2.57407386-3.43209849 7.72222158 0 9.4382708l7.72222156 5.14814771h-0.85802463l42.90123103 33.46296023z" fill="#FFD527" p-id="5460"></path><path d="M703.48764191 576.94443742H161.21608184l-58.34567421-38.61110794c-3.43209849-2.57407386-5.14814772-6.00617233-5.14814772-10.29629542s1.71604925-7.72222158 5.14814772-10.29629546l58.34567421-38.61110789h547.41970778l2.57407386 10.29629544-5.14814773 2.57407385-54.05555108 36.03703406 54.05555108 36.03703405 4.29012312 1.71604924-2.57407388 10.29629545-4.29012308 0.85802462z m-537.98143697-12.87036931h518.24687067l-38.6111079-25.74073863c-3.43209849-2.57407386-5.14814772-6.00617233-5.14814772-10.29629542s1.71604925-7.72222158 5.14814772-10.29629546l38.6111079-25.7407386H165.50620494l-54.05555111 36.03703406 54.05555111 36.03703405z m-54.91357572-36.03703405z" fill="#961919" p-id="5461"></path><path d="M817.60491641 660.1728256l-3.43209849 2.57407385-53.19752647 35.17900945H221.27780523s-0.85802462-0.85802462 0-0.85802464l52.33950185-34.32098481 3.4320985-2.57407385c3.43209849-2.57407386 3.43209849-7.72222158 0-9.43827083l-24.882714-16.30246777-30.88888635-20.59259091v-0.85802463h539.69748622l56.62962496 37.75308331c3.43209849 1.71604925 3.43209849 6.86419697 0 9.43827083z" fill="#FFFFFF" p-id="5462"></path><path d="M763.54936531 703.93208124H216.12965753l-2.57407387-10.29629547 5.14814772-2.57407386 54.0555511-36.03703403-58.34567421-38.61110793 1.71604926-9.43827082H763.54936531l58.34567418 38.61110792c3.43209849 2.57407386 5.14814772 6.00617233 5.14814773 10.29629546s-1.71604925 7.72222158-5.14814773 10.29629543l-58.34567418 37.7530833z m-522.5369938-12.87036933H759.25924222l54.05555108-36.03703403-54.05555108-36.03703407H241.01237151l38.61110792 25.74073861c3.43209849 2.57407386 5.14814772 6.00617233 5.14814773 10.29629546s-1.71604925 7.72222158-5.14814773 10.29629544l-38.61110792 25.74073859z" fill="#961919" p-id="5463"></path><path d="M814.17281792 670.46912103l-53.19752647 35.17900944H262.46298704L287.34570102 689.34566268c3.43209849-2.57407386 3.43209849-7.72222158 0-9.43827081l-13.72839394-9.43827084 3.4320985-2.57407386c3.43209849-2.57407386 3.43209849-7.72222158 0-9.43827082l-24.882714-16.30246777h519.96291996l42.04320638 28.31481245z" fill="#F9F18F" p-id="5464"></path><path d="M814.17281792 661.88887483l-53.19752647 35.17900943H262.46298704L287.34570102 680.76541647c3.43209849-2.57407386 3.43209849-7.72222158 0-9.43827082l-8.58024621-6.00617233h451.32095033l45.47530484-30.0308617 38.61110794 26.59876321z" fill="#FFD527" p-id="5465"></path><path d="M763.54936531 703.93208124H216.12965753l-2.57407387-10.29629547 5.14814772-2.57407386 54.0555511-36.03703403-58.34567421-38.61110793 1.71604926-9.43827082H763.54936531l58.34567418 38.61110792c3.43209849 2.57407386 5.14814772 6.00617233 5.14814773 10.29629546s-1.71604925 7.72222158-5.14814773 10.29629543l-58.34567418 37.7530833z m-522.5369938-12.87036933H759.25924222l54.05555108-36.03703403-54.05555108-36.03703407H241.01237151l38.61110792 25.74073861c3.43209849 2.57407386 5.14814772 6.00617233 5.14814773 10.29629546s-1.71604925 7.72222158-5.14814773 10.29629544l-38.61110792 25.74073859z" fill="#961919" p-id="5466"></path><path d="M624.54937683 837.783922l15.44444316 6.00617236c0.85802462 0 0.85802462 0.85802462 0.85802463 1.71604922l-6.86419696 15.44444316c-0.85802462 1.71604925 1.71604925 2.57407386 2.57407383 1.71604927l10.29629546-12.8703693h1.71604923l11.15432007 10.29629542 0.85802463 0.85802461c0.85802462 0.85802462 3.43209849 0 2.57407384-1.71604923l-8.5802462-13.72839393c-0.85802462-0.85802462 0-1.71604925 0.85802463-1.71604922l14.58641853-8.5802462c1.71604925-0.85802462 0.85802462-2.57407386-0.85802462-2.57407388h-0.85802461l-15.44444315 3.43209849c-0.85802462 0-1.71604925 0-1.71604927-0.85802461l-3.43209844-16.30246779c0-1.71604925-2.57407386-1.71604925-2.57407388 0v0.85802461l-0.85802464 16.30246779c0 0.85802462-0.85802462 1.71604925-1.71604922 1.71604923l-16.30246778-1.71604923c-2.57407386-0.85802462-3.43209849 1.71604925-1.71604924 1.71604923z" fill="#FFFFFF" p-id="5467"></path><path d="M634.84567226 866.95675909c-0.85802462 0-1.71604925 0-2.57407385-0.85802462-1.71604925-0.85802462-2.57407386-3.43209849-1.71604925-6.00617234l6.00617233-13.72839391-13.72839391-5.14814772c-2.57407386-0.85802462-3.43209849-3.43209849-2.57407386-5.14814773 0.85802462-2.57407386 2.57407386-3.43209849 5.14814771-3.43209849l14.58641856 1.71604925 0.85802463-16.30246777c0.85802462-1.71604925 2.57407386-3.43209849 5.14814771-2.57407387 1.71604925 0 3.43209849 1.71604925 4.29012309 3.43209848l3.43209849 14.58641854 14.58641855-3.43209847c2.57407386-0.85802462 4.29012309 0.85802462 5.14814772 2.57407384 0.85802462 2.57407386 0 4.29012309-1.71604925 6.00617235l-12.8703693 7.72222159 7.72222159 12.87036929c0.85802462 1.71604925 0.85802462 4.29012309-0.85802463 6.00617235-1.71604925 1.71604925-4.29012309 1.71604925-6.00617234 0l-11.15432007-10.29629545-9.43827082 11.15432006c-0.85802462 0-2.57407386 0.85802462-4.2901231 0.85802462z m1.71604923-4.29012308z m0.85802463-23.16666476l3.4320985 1.71604925c0.85802462 0.85802462 2.57407386 1.71604925 2.57407384 2.57407386 0.85802462 0.85802462 0 2.57407386 0 3.43209846l-1.71604924 3.43209851 3.43209849-4.29012311c1.71604925-0.85802462 4.29012309-0.85802462 6.00617232 0l2.57407388 2.57407387-1.71604924-3.43209851c-0.85802462-0.85802462-0.85802462-2.57407386-0.85802464-3.43209847 0-0.85802462 0.85802462-2.57407386 2.57407388-2.57407386l3.43209848-1.71604925-3.43209848 0.85802463c-0.85802462 0-2.57407386 0-3.43209849-0.85802463-0.85802462-0.85802462-1.71604925-1.71604925-1.71604924-3.43209847l-0.85802459-3.43209847v4.2901231c0 0.85802462-0.85802462 2.57407386-1.71604926 3.43209847-0.85802462 0.85802462-2.57407386 0.85802462-3.43209848 0.85802462h-5.14814773z m0 5.14814773z m2.57407387-9.43827082z m29.17283707 0z m-0.8580246-3.43209848z" fill="#961919" p-id="5468"></path><path d="M624.54937683 837.783922l15.44444316 6.00617236c0.85802462 0 0.85802462 0.85802462 0.85802463 1.71604922l-6.86419696 15.44444316 10.29629541-12.01234465c0.85802462-0.85802462 1.71604925-0.85802462 1.71604926 0l0.85802462 0.85802462h1.71604923l11.15432007 10.29629542c0.85802462 0 0.85802462-0.85802462 0-1.71604923l-8.58024622-13.72839393c-0.85802462-0.85802462 0-1.71604925 0.85802464-1.71604923l14.58641855-8.58024621c0.85802462 0 0.85802462-0.85802462 0.8580246-0.85802462l-15.44444315 3.4320985c-0.85802462 0-1.71604925 0-1.71604925-0.85802464h-0.85802462c-0.85802462 0-1.71604925 0-1.71604921-0.85802461l-3.43209852-15.44444318v0.85802463l-0.85802461 16.3024678c0 0.85802462-0.85802462 1.71604925-1.71604924 1.71604922l-16.30246779-1.71604922c-1.71604925-1.71604925-2.57407386 0.85802462-0.8580246 0.85802459z" fill="#F9F18F" p-id="5469"></path><path d="M624.54937683 837.783922l15.44444316 6.00617236c0.85802462 0 0.85802462 0.85802462 0.85802463 1.71604922l-6.86419696 15.44444316 6.86419696-8.5802462 2.57407384-5.14814772c0-0.85802462 0-1.71604925-0.85802461-1.71604924l-15.44444318-6.00617233c-1.71604925-0.85802462-0.85802462-2.57407386 0.85802463-2.57407384l16.30246777 1.71604922c0.85802462 0 1.71604925-0.85802462 1.71604926-1.71604922l0.85802462-8.58024623-2.57407388-10.29629542v0.85802461l-0.85802461 16.30246779c0 0.85802462-0.85802462 1.71604925-1.71604924 1.71604925l-16.30246779-1.71604925c-1.71604925 0-2.57407386 2.57407386-0.8580246 2.57407384z" fill="#F4DD58" p-id="5470"></path><path d="M634.84567226 866.95675909c-0.85802462 0-1.71604925 0-2.57407385-0.85802462-1.71604925-0.85802462-2.57407386-3.43209849-1.71604925-6.00617234l6.00617233-13.72839391-13.72839391-5.14814772c-2.57407386-0.85802462-3.43209849-3.43209849-2.57407386-5.14814773 0.85802462-2.57407386 2.57407386-3.43209849 5.14814771-3.43209849l14.58641856 1.71604925 0.85802463-14.58641855c0-2.57407386 1.71604925-4.29012309 4.29012309-4.29012309s4.29012309 1.71604925 5.14814771 3.43209848l3.43209849 14.58641854 14.58641855-3.43209847c2.57407386-0.85802462 4.29012309 0.85802462 5.14814772 2.57407384 0.85802462 2.57407386 0 4.29012309-1.71604925 6.00617235l-12.8703693 7.72222159 7.72222159 12.87036929c0.85802462 1.71604925 0.85802462 4.29012309-0.85802463 6.00617235-1.71604925 1.71604925-4.29012309 1.71604925-6.00617234 0l-5.14814773-4.29012312-6.00617234-5.1481477-9.43827082 11.15432005c-0.85802462-0.85802462-2.57407386 0-4.2901231 0z m2.57407386-27.45678784l3.4320985 1.71604925c0.85802462 0.85802462 2.57407386 1.71604925 2.57407384 2.57407386 0.85802462 0.85802462 0 2.57407386 0 3.43209846l-1.71604924 3.43209851 3.43209849-3.43209851c1.71604925-0.85802462 4.29012309-0.85802462 6.00617232 0l2.57407388 2.57407389-1.71604924-3.43209849c-0.85802462-0.85802462-0.85802462-2.57407386-0.85802464-3.43209848 0-0.85802462 0.85802462-2.57407386 2.57407388-2.57407388l3.43209848-1.71604923-3.43209848 0.85802462c-0.85802462 0-2.57407386 0-3.43209849-0.85802462-0.85802462-0.85802462-1.71604925-1.71604925-1.71604924-3.43209847l-0.85802459-3.43209848v4.29012309c0 0.85802462-0.85802462 2.57407386-1.71604926 3.43209848-0.85802462 0.85802462-2.57407386 0.85802462-3.43209848 0.85802461l-5.14814773-0.85802461z m0 5.14814773z m2.57407387-9.43827082z m29.17283707 0z m-0.8580246-3.43209848z" fill="#961919" p-id="5471"></path><path d="M747.24689752 847.22219282l-66.92592038-33.46296017s3.43209849-13.72839391 20.59259089-4.29012312c17.16049241 10.29629546 0 0 0 0l18.01851702 14.58641857 22.30864014 5.1481477c-0.85802462 0.85802462 16.30246778 11.15432006 6.00617233 18.01851702z" fill="#FFFFFF" p-id="5472"></path><path d="M747.24689752 850.65429133l-71.21604349-35.17900944 0.85802461-2.57407387s1.71604925-6.86419697 7.72222161-9.43827083c5.14814772-1.71604925 10.29629546-0.85802462 17.16049242 3.43209849l7.72222157 4.29012312-0.85802462 0.8580246 11.15432005 9.43827082 22.30864013 5.14814773c1.71604925 0.85802462 12.01234468 7.72222158 12.01234469 14.58641855 0 2.57407386-0.85802462 5.14814772-5.14814771 8.58024621l-1.71604926 0.85802462z m-63.49382191-38.61110793l62.6357973 30.88888634c0.85802462-0.85802462 0.85802462-1.71604925 0.85802461-1.71604924 0-2.57407386-5.14814772-6.86419697-8.58024621-9.43827082l-23.16666472-6.00617234-18.01851704-14.58641854c-4.29012309-2.57407386-8.5802462-3.43209849-11.15432006-2.57407388-0.85802462 1.71604925-1.71604925 2.57407386-2.57407388 3.43209848z" fill="#961919" p-id="5473"></path><path d="M747.24689752 847.22219282l-61.77777267-30.88888631s2.57407386-11.15432006 15.44444318-6.86419698l5.14814772 2.57407387 15.44444317 12.87036931 2.57407386 1.71604924 19.73456627 4.29012311c4.29012309 4.29012309 11.15432006 11.15432006 3.43209847 16.30246776z" fill="#F9F18F" p-id="5474"></path><path d="M794.43825166 837.783922l-76.36419122-11.15432005-1.71604924-0.85802461-54.0555511-53.19752649-1.71604922-0.8580246s-5.14814772-5.14814772 0.85802462-10.29629545c0.85802462-0.85802462 24.88271399-22.30864012 56.62962494-19.73456626 20.59259088 1.71604925 33.46296019 8.5802462 36.03703405 10.29629543 4.29012309 1.71604925 16.30246778 8.5802462 29.17283708 22.30864013 8.5802462 9.43827083 12.87036929 19.73456627 15.44444318 29.17283709 4.29012309 14.58641855 2.57407386 27.45678784 2.57407386 28.31481248 0 6.86419697-6.86419697 6.00617233-6.86419695 6.00617233z" fill="#FFFFFF" p-id="5475"></path><path d="M794.43825166 841.2160205h-0.85802463l-77.22221583-12.0123447-2.57407388-1.71604923-54.91357569-54.05555108c-0.85802462-0.85802462-3.43209849-3.43209849-2.57407387-7.72222159 0-1.71604925 0.85802462-4.29012309 4.29012312-6.86419697 6.00617233-5.14814772 29.17283709-23.16666475 59.20369879-20.59259087 19.73456627 1.71604925 32.60493557 7.72222158 36.89505868 10.29629545 13.72839391 6.86419697 24.02468937 16.30246778 30.03086174 23.16666474 7.72222158 8.5802462 12.87036929 18.87654164 16.30246777 30.0308617 3.43209849 12.87036929 3.43209849 23.16666475 2.57407386 29.17283711 0 4.29012309-1.71604925 6.86419697-3.43209849 7.72222157-3.43209849 1.71604925-6.00617233 2.57407386-7.72222157 2.57407387z m0-6.86419697c0.85802462 0 1.71604925 0 2.57407385-0.85802462 0.85802462-0.85802462 0.85802462-1.71604925 0.85802463-2.57407385 0-5.14814772 0-15.44444316-2.57407387-27.45678787-2.57407386-11.15432006-7.72222158-19.73456627-14.58641855-27.45678786-6.00617233-6.86419697-15.44444316-15.44444316-28.31481249-21.45061549-4.29012309-2.57407386-16.30246778-8.5802462-35.17900939-10.29629545-28.31481246-2.57407386-49.76542799 15.44444316-54.05555112 18.87654164-0.85802462 0.85802462-1.71604925 1.71604925-1.71604922 2.57407387 0 0.85802462 0.85802462 2.57407386 0.8580246 2.57407385l0.85802462 0.85802463 54.91357572 53.19752647 76.36419122 12.01234468z" fill="#961919" p-id="5476"></path><path d="M794.43825166 837.783922l-76.36419122-11.15432005-1.71604924-0.85802461-54.0555511-53.19752649c0-0.85802462 0.85802462-1.71604925 2.57407387-3.43209847 0.85802462-0.85802462 24.88271399-22.30864012 56.62962495-19.73456626 20.59259088 1.71604925 33.46296019 8.5802462 36.03703405 10.29629543 4.29012309 1.71604925 16.30246778 8.5802462 29.17283712 22.30864012 6.00617233 6.86419697 10.29629546 13.72839391 12.8703693 20.59259091 4.29012309 14.58641855 2.57407386 27.45678784 2.57407384 28.31481248-0.85802462 7.72222158-7.72222158 6.86419697-7.72222157 6.86419694z" fill="#F9F18F" p-id="5477"></path><path d="M795.29627627 836.06787277l-76.36419121-11.15432006-1.71604922-0.85802461-54.05555112-53.19752649c0-0.85802462 0.85802462-0.85802462 0.85802464-1.71604923l48.90740335 48.04937876 1.71604925 0.85802462 76.36419122 11.15432004s6.86419697 0.85802462 7.72222157-6.86419695c0-0.85802462 1.71604925-15.44444316-3.43209848-31.74691097 1.71604925 3.43209849 3.43209849 6.00617233 4.29012312 9.43827085 4.29012309 14.58641855 2.57407386 27.45678784 2.57407384 28.31481245 0 8.5802462-6.86419697 7.72222158-6.86419696 7.72222159z" fill="#F4DD58" p-id="5478"></path><path d="M718.07406044 827.48762657h-1.71604924c-1.71604925-0.85802462-2.57407386-2.57407386-1.71604924-4.29012308l33.4629602-74.64814198c0.85802462-1.71604925 2.57407386-2.57407386 4.29012307-1.71604926 1.71604925 0.85802462 2.57407386 2.57407386 1.71604926 4.2901231l-33.4629602 74.64814199c0 1.71604925-1.71604925 1.71604925-2.57407385 1.71604923z" fill="#961919" p-id="5479"></path><path d="M718.07406044 827.48762657c-0.85802462 0-1.71604925 0-2.57407385-0.85802462-0.85802462-1.71604925-0.85802462-3.43209849 0-4.2901231l59.20369877-53.19752647c1.71604925-0.85802462 3.43209849-0.85802462 4.29012313 0 0.85802462 1.71604925 0.85802462 3.43209849 0 4.29012311l-59.20369882 53.19752646c0 0.85802462-0.85802462 0.85802462-1.71604923 0.85802462z" fill="#961919" p-id="5480"></path><path d="M718.07406044 827.48762657c-1.71604925 0-3.43209849-1.71604925-3.43209848-3.43209847l0.85802463-82.37036356c0-1.71604925 1.71604925-3.43209849 3.43209847-3.43209848s3.43209849 1.71604925 3.43209849 3.43209848l-0.85802463 82.37036356c0 2.57407386-1.71604925 3.43209849-3.43209848 3.43209847z" fill="#961919" p-id="5481"></path><path d="M718.07406044 827.48762657c-1.71604925 0-2.57407386-0.85802462-3.43209848-2.57407386-0.85802462-1.71604925 0.85802462-3.43209849 2.57407388-4.2901231l80.6543143-22.30864016c1.71604925-0.85802462 3.43209849 0.85802462 4.29012309 2.57407388 0.85802462 1.71604925-0.85802462 3.43209849-2.57407384 4.29012309l-81.51233895 22.30864015c0.85802462 0 0 0 0 0z" fill="#961919" p-id="5482"></path><path d="M718.07406044 827.48762657c-0.85802462 0-2.57407386-0.85802462-2.57407385-1.71604923l-30.88888634-77.22221583c-0.85802462-1.71604925 0-3.43209849 1.71604924-4.29012312 1.71604925-0.85802462 3.43209849 0 4.29012307 1.71604925l30.88888636 77.22221585c0.85802462 1.71604925 0 3.43209849-1.71604925 4.29012308h-1.71604923z" fill="#961919" p-id="5483"></path><path d="M794.43825166 841.2160205h-0.85802463l-77.22221583-12.0123447-2.57407388-1.71604923-54.91357569-54.05555108c0-0.85802462-3.43209849-3.43209849-2.57407387-7.72222159 0-1.71604925 0.85802462-4.29012309 4.29012312-6.86419697 6.00617233-5.14814772 29.17283709-23.16666475 59.20369879-20.59259087 19.73456627 1.71604925 32.60493557 7.72222158 36.89505868 10.29629545 13.72839391 6.86419697 24.02468937 16.30246778 30.03086174 23.16666474 6.86419697 7.72222158 12.01234468 16.30246778 15.44444314 26.5987632 5.14814772 15.44444316 4.29012309 28.31481246 4.2901231 32.60493561s-1.71604925 6.00617233-3.43209847 7.72222157c-4.29012309 1.71604925-6.86419697 2.57407386-8.5802462 2.57407387z m0-6.86419697c0.85802462 0 1.71604925 0 2.57407385-0.85802462 0.85802462-0.85802462 0.85802462-1.71604925 0.85802463-2.57407385 0-3.43209849 0.85802462-16.30246778-3.43209848-30.03086173-2.57407386-9.43827083-7.72222158-18.01851702-13.72839394-24.882714-6.00617233-6.86419697-15.44444316-15.44444316-28.31481249-21.45061549-4.29012309-2.57407386-16.30246778-8.5802462-35.17900939-10.29629545-28.31481246-2.57407386-49.76542799 15.44444316-54.05555112 18.87654164-0.85802462 0.85802462-1.71604925 1.71604925-1.71604922 2.57407387 0 0.85802462 0.85802462 2.57407386 0.8580246 2.57407385l55.77160034 54.0555511 76.36419122 12.01234468z" fill="#961919" p-id="5484"></path><path d="M747.24689752 847.22219282l-5.14814772-2.57407384c7.72222158-5.14814772 0.85802462-12.01234468-3.43209849-15.44444318l2.57407388 0.85802464c-0.85802462 0 16.30246778 10.29629546 6.00617233 17.16049238z" fill="#F4DD58" p-id="5485"></path><path d="M747.24689752 850.65429133l-71.21604349-35.17900944 0.85802461-2.57407387s1.71604925-6.86419697 7.72222161-9.43827083c5.14814772-1.71604925 10.29629546-0.85802462 17.16049242 3.43209849l0.85802462 0.85802462 17.16049238 13.72839392 22.30864013 5.14814773s1.71604925 0.85802462 3.43209849 2.57407385c6.00617233 4.29012309 8.5802462 8.5802462 8.5802462 12.87036931 0 1.71604925-0.85802462 5.14814772-5.14814771 7.7222216l-1.71604926 0.85802462z m-63.49382191-38.61110793l62.6357973 30.88888634c0.85802462-0.85802462 0.85802462-0.85802462 0.85802461-1.71604924 0-1.71604925-1.71604925-4.29012309-6.00617233-7.72222159-0.85802462-0.85802462-1.71604925-1.71604925-2.57407388-1.71604923l-22.30864011-5.14814773-18.01851703-14.58641855c-4.29012309-2.57407386-8.5802462-3.43209849-11.15432006-2.57407387-1.71604925 0.85802462-2.57407386 1.71604925-3.4320985 2.57407387z" fill="#961919" p-id="5486"></path><path d="M711.27266016 836.93040033a5.14814772 5.14814772 0 1 0 4.59257678-9.21531008 5.14814772 5.14814772 0 1 0-4.59257678 9.21531008Z" fill="#F9F18F" p-id="5487"></path><path d="M712.92591271 841.2160205c-0.85802462 0-2.57407386 0-3.43209847-0.85802464-4.29012309-1.71604925-5.14814772-6.86419697-3.43209849-11.15432006 0.85802462-2.57407386 2.57407386-4.29012309 5.14814773-4.29012309 1.71604925-0.85802462 4.29012309-0.85802462 6.00617236 0 4.29012309 1.71604925 5.14814772 6.86419697 3.43209845 11.15432006-1.71604925 3.43209849-4.29012309 5.14814772-7.72222158 5.14814773z m0.85802461-11.15432006c-0.85802462 0-1.71604925 0.85802462-1.71604922 1.71604923-0.85802462 0.85802462 0 2.57407386 0.85802461 2.57407386s1.71604925 0 2.57407388-1.71604925c0 0 0-1.71604925-1.71604927-2.57407384 0.85802462 0 0 0 0 0z m-4.29012308 0z" fill="#961919" p-id="5488"></path><path d="M570.49382574 336.69754371v519.10489533c0 12.01234468-10.29629546 22.30864012-22.30864014 22.30864012h-62.63579728c-12.01234468 0-21.4506155-10.29629546-21.45061551-22.30864012V337.55556834c0-12.01234468 10.29629546-22.30864012 22.30864012-22.30864015h61.77777267c12.01234468 0 21.4506155 9.43827083 22.30864014 21.45061552z" fill="#FFFFFF" p-id="5489"></path><path d="M548.18518561 884.11725149h-62.63579729c-15.44444316-0.85802462-27.45678784-12.87036929-27.45678784-28.31481245V337.55556834c0-15.44444316 12.87036929-28.31481246 28.31481245-28.31481248h61.77777267c15.44444316 0 28.31481246 12.01234468 28.31481248 27.45678785v519.10489533c0 16.30246778-12.87036929 28.31481246-28.31481248 28.31481245z m-61.77777268-562.00612632c-8.5802462 0-15.44444316 6.86419697-15.44444315 15.44444317v518.2468707c0 8.5802462 6.86419697 15.44444316 15.44444315 15.44444315h62.6357973c8.5802462 0 15.44444316-6.86419697 15.44444316-15.44444315V336.69754371c0-8.5802462-7.72222158-14.58641855-15.44444316-14.58641854h-62.6357973z" fill="#961919" p-id="5490"></path><path d="M586.79629351 345.27778993v519.10489532c0 12.01234468-10.29629546 22.30864012-22.30864012 22.30864014H501.8518561V366.72840541c0-12.01234468 10.29629546-22.30864012 22.30864013-22.30864011h62.63579728z" fill="#B7E2F9" p-id="5491"></path><path d="M570.49382574 336.69754371v519.10489533c0 12.01234468-10.29629546 22.30864012-22.30864014 22.30864012h-42.04320641c12.01234468 0 22.30864012-10.29629546 22.30864015-22.30864012V336.69754371h42.0432064z" fill="#54D8FC" p-id="5492"></path><path d="M516.43827466 878.11107916h-12.87036932c0-18.87654164 5.14814772-29.17283709 9.43827084-37.7530833 4.29012309-8.5802462 7.72222158-16.30246778 7.72222158-31.74691094 0-16.30246778-3.43209849-24.02468937-7.72222158-31.74691096-4.29012309-8.5802462-9.43827083-18.87654164-9.43827084-37.75308328s5.14814772-29.17283709 9.43827084-37.75308332c4.29012309-8.5802462 7.72222158-16.30246778 7.72222158-31.74691094 0-16.30246778-3.43209849-24.02468937-7.72222158-31.74691094-4.29012309-8.5802462-9.43827083-18.87654164-9.43827084-37.75308331s5.14814772-29.17283709 9.43827084-37.7530833c4.29012309-8.5802462 7.72222158-16.30246778 7.72222158-31.74691096 0-16.30246778-3.43209849-24.02468937-7.72222158-31.74691094-4.29012309-8.5802462-9.43827083-18.87654164-9.43827084-37.7530833s5.14814772-29.17283709 9.43827084-37.75308331c4.29012309-8.5802462 7.72222158-16.30246778 7.72222158-31.74691094 0-16.30246778-3.43209849-24.02468937-7.72222158-31.74691094-4.29012309-8.5802462-9.43827083-18.87654164-9.43827084-37.75308331h12.87036932c0 16.30246778 3.43209849 24.02468937 7.72222157 31.74691094 4.29012309 8.5802462 9.43827083 18.87654164 9.43827083 37.75308331s-5.14814772 29.17283709-9.43827083 37.7530833c-4.29012309 8.5802462-7.72222158 16.30246778-7.72222157 31.74691095 0 16.30246778 3.43209849 24.02468937 7.72222157 31.74691095 4.29012309 8.5802462 9.43827083 18.87654164 9.43827083 37.75308329s-5.14814772 29.17283709-9.43827083 37.75308331c-4.29012309 8.5802462-7.72222158 16.30246778-7.72222157 31.74691095 0 16.30246778 3.43209849 24.02468937 7.72222157 31.74691094 4.29012309 8.5802462 9.43827083 18.87654164 9.43827083 37.75308331s-5.14814772 29.17283709-9.43827083 37.7530833c-4.29012309 8.5802462-7.72222158 16.30246778-7.72222157 31.74691096s3.43209849 24.02468937 7.72222157 31.74691093c4.29012309 8.5802462 9.43827083 18.87654164 9.43827083 37.75308331s-5.14814772 29.17283709-9.43827083 37.7530833c-4.29012309 7.72222158-7.72222158 15.44444316-7.72222157 31.74691094z" fill="#FFFFFF" p-id="5493"></path><path d="M552.47530871 884.11725149h-70.35801889c-13.72839391 0-24.02468937-11.15432006-24.02468934-24.02468936V333.26544523c0-13.72839391 11.15432006-24.02468937 24.02468934-24.02468937h70.35801889c13.72839391 0 24.02468937 11.15432006 24.02468937 24.02468937v526.8271169c0 13.72839391-10.29629546 24.02468937-24.02468937 24.02468936z m-70.35801889-562.00612632c-6.00617233 0-11.15432006 5.14814772-11.15432004 11.15432006v526.8271169c0 6.00617233 5.14814772 11.15432006 11.15432004 11.15432006h70.35801889c6.00617233 0 11.15432006-5.14814772 11.15432008-11.15432006V333.26544523c0-6.00617233-5.14814772-11.15432006-11.15432008-11.15432006h-70.35801889z" fill="#961919" p-id="5494"></path><path d="M607.38888442 176.2469397v108.11110218c0 19.73456627-16.30246778 36.03703405-36.03703407 36.03703404H463.24074819c-4.29012309 0-8.5802462-0.85802462-12.8703693-2.57407385-13.72839391-5.14814772-23.16666475-18.01851702-23.16666475-34.32098481V176.2469397c0-19.73456627 16.30246778-36.03703405 36.03703405-36.03703405h108.11110216c15.44444316 0 29.17283709 9.43827083 34.32098483 23.16666474 0.85802462 4.29012309 1.71604925 8.5802462 1.71604924 12.87036931z" fill="#FFFFFF" p-id="5495"></path><path d="M624.54937683 176.2469397v108.11110218c0 19.73456627-16.30246778 36.03703405-36.03703409 36.03703404H480.40124058c-4.29012309 0-8.5802462-0.85802462-12.87036929-2.57407385-1.71604925-4.29012309-2.57407386-8.5802462-2.57407385-12.87036931V197.69755524c0-19.73456627 16.30246778-36.03703405 36.03703403-36.03703408h108.1111022c4.29012309 0 8.5802462 0.85802462 12.8703693 2.57407386 1.71604925 3.43209849 2.57407386 7.72222158 2.57407386 12.01234468z" fill="#FFC773" p-id="5496"></path><path d="M607.38888442 176.2469397v108.11110218c0 19.73456627-16.30246778 36.03703405-36.03703407 36.03703404h-53.19752644c19.73456627 0 36.03703405-16.30246778 36.03703404-36.03703404V176.2469397c0-5.14814772-0.85802462-10.29629546-3.43209848-15.44444318h41.18518177c4.29012309 0 8.5802462 0.85802462 12.87036931 2.57407387 1.71604925 4.29012309 2.57407386 8.5802462 2.57407387 12.87036931z" fill="#FF9C31" p-id="5497"></path><path d="M427.20371414 189.97533364c-3.43209849 0-6.86419697-2.57407386-6.86419697-6.86419697v-6.86419697c0-3.43209849 2.57407386-6.86419697 6.86419697-6.86419694s6.86419697 2.57407386 6.86419697 6.86419694v6.86419697c-0.85802462 3.43209849-3.43209849 6.86419697-6.86419697 6.86419697zM427.20371414 213.14199839c-3.43209849 0-6.86419697-2.57407386-6.86419697-6.86419696v-8.58024619c0-3.43209849 2.57407386-6.86419697 6.86419697-6.86419698s6.86419697 2.57407386 6.86419697 6.86419698v8.58024619c-0.85802462 4.29012309-3.43209849 6.86419697-6.86419697 6.86419696z" fill="#961919" p-id="5498"></path><path d="M571.35185035 327.25927289H463.24074819c-23.16666475 0-42.90123101-18.87654164-42.90123102-42.90123101V234.59261389c0-3.43209849 2.57407386-6.86419697 6.86419697-6.86419697s6.00617233 3.43209849 6.00617234 6.86419697v49.76542799c0 16.30246778 13.72839391 30.03086171 30.03086171 30.0308617h108.11110216c16.30246778 0 30.03086171-13.72839391 30.03086174-30.0308617V176.2469397c0-4.29012309-0.85802462-8.5802462-2.57407387-12.01234468-5.14814772-10.29629546-15.44444316-17.16049241-27.45678787-17.16049242H463.24074819c-8.5802462 0-16.30246778 3.43209849-22.30864013 10.29629545-2.57407386 2.57407386-6.00617233 2.57407386-9.43827082 0.85802461-2.57407386-2.57407386-2.57407386-6.00617233-0.85802462-9.43827081 7.72222158-9.43827083 19.73456627-14.58641855 31.74691096-14.58641855H570.49382574c16.30246778 0 31.74691093 9.43827083 38.61110793 24.882714 2.57407386 5.14814772 4.29012309 11.15432006 4.29012307 18.01851703v108.11110218c0.85802462 23.16666475-18.87654164 42.04320639-42.04320639 42.04320638z" fill="#961919" p-id="5499"></path><path d="M567.06172724 233.73458927l-29.17283707 13.72839392c-1.71604925 0.85802462-1.71604925 2.57407386-0.85802463 3.43209848l14.58641854 28.3148125v0.8580246c1.71604925 2.57407386-2.57407386 5.14814772-4.29012308 3.43209849l-21.45061551-24.02468939h-0.85802462c-0.85802462-0.85802462-2.57407386-0.85802462-3.43209847 0l-20.59259093 20.5925909-1.71604924 1.71604925c-2.57407386 2.57407386-6.00617233-0.85802462-4.29012309-3.43209848l15.44444317-28.31481248c0.85802462-1.71604925 0-3.43209849-0.85802461-3.43209848l-28.31481248-14.58641855c-2.57407386-1.71604925-1.71604925-6.00617233 1.71604924-5.14814773h2.57407386l29.1728371 6.00617235c1.71604925 0 3.43209849-0.85802462 3.43209849-2.57407386v-0.85802462l5.1481477-30.88888632c0.85802462-2.57407386 4.29012309-2.57407386 5.14814773-0.85802461v0.85802461l3.43209849 31.74691094c0 1.71604925 1.71604925 2.57407386 3.43209847 2.57407386l31.74691094-5.14814773c1.71604925 0.85802462 2.57407386 5.14814772 0 6.00617235z" fill="#FFFFFF" p-id="5500"></path><path d="M548.18518561 286.93211575c-1.71604925 0-3.43209849-0.85802462-4.29012312-1.71604924l-21.45061549-24.02468937-22.30864014 22.30864012c-2.57407386 2.57407386-5.14814772 2.57407386-7.72222159 0.85802462-2.57407386-1.71604925-3.43209849-5.14814772-1.71604922-7.7222216l15.44444314-28.31481246-28.31481245-13.72839393c-2.57407386-1.71604925-4.29012309-4.29012309-2.57407387-6.86419697 0.85802462-2.57407386 3.43209849-4.29012309 6.86419695-3.43209846l31.74691099 6.00617233 4.2901231-31.74691094c0.85802462-2.57407386 2.57407386-4.29012309 5.1481477-5.14814772 2.57407386 0 5.14814772 0.85802462 6.00617235 3.43209847 0 0.85802462 0.85802462 1.71604925 0.85802461 2.57407387l3.43209849 31.74691094 30.88888633-5.14814772c3.43209849-0.85802462 6.00617233 0.85802462 6.86419696 4.2901231 0.85802462 2.57407386 0 6.00617233-3.43209848 6.86419697l-29.17283709 13.72839391 14.58641855 27.45678787c1.71604925 3.43209849 0.85802462 6.00617233-1.71604925 7.72222157-0.85802462 0.85802462-1.71604925 0.85802462-3.43209847 0.85802464z m-23.16666474-30.88888634l1.71604923 0.85802461 19.73456626 21.45061552-12.8703693-25.74073863c-0.85802462-1.71604925-0.85802462-2.57407386 0-4.29012309s1.71604925-2.57407386 3.43209848-3.43209849l27.45678785-12.8703693-30.0308617 5.14814773c-1.71604925 0-3.43209849 0-4.29012312-0.85802462-0.85802462-0.85802462-1.71604925-2.57407386-2.57407384-4.29012311l-3.4320985-28.31481248-5.14814771 27.45678786c0 1.71604925-0.85802462 3.43209849-2.57407386 4.29012309-1.71604925 0.85802462-2.57407386 1.71604925-4.2901231 0.85802464l-28.31481248-5.14814773 25.74073862 12.87036931c1.71604925 0.85802462 2.57407386 1.71604925 2.57407386 3.43209847 0.85802462 1.71604925 0 3.43209849-0.85802463 4.29012311l-13.72839394 25.74073863 20.59259092-20.59259091c1.71604925-1.71604925 5.14814772-1.71604925 6.86419696-0.85802461z" fill="#961919" p-id="5501"></path><path d="M567.06172724 233.73458927l-29.17283707 13.72839392c-1.71604925 0.85802462-1.71604925 2.57407386-0.85802463 3.43209848l14.58641854 28.3148125-20.59259087-22.30864015c-0.85802462-0.85802462-2.57407386-0.85802462-4.29012311 0l-1.71604923 1.71604922c-0.85802462-0.85802462-2.57407386-0.85802462-3.43209847 0l-20.59259093 20.59259093c-0.85802462-0.85802462-1.71604925-2.57407386-0.85802461-3.43209849l15.44444317-28.31481249c0.85802462-1.71604925 0-3.43209849-0.85802461-3.43209847L484.69136369 230.30249079c-0.85802462-0.85802462-1.71604925-1.71604925-1.71604923-2.57407387l29.1728371 6.00617235c1.71604925 0 3.43209849-0.85802462 3.43209847-2.57407386v-0.85802462h1.71604924c1.71604925 0 3.43209849-0.85802462 3.43209849-2.57407387l5.14814773-30.03086168v0.85802461l3.43209847 31.74691094c0 1.71604925 1.71604925 2.57407386 3.43209849 2.57407386l31.74691094-5.14814773c4.29012309 0.85802462 5.14814772 5.14814772 2.57407385 6.00617235z" fill="#F9F18F" p-id="5502"></path><path d="M567.06172724 233.73458927l-29.17283707 13.72839392c-1.71604925 0.85802462-1.71604925 2.57407386-0.85802463 3.43209848l14.58641854 28.3148125-15.44444317-15.4444432-5.1481477-10.29629544c-0.85802462-1.71604925 0-3.43209849 0.85802462-3.43209847l29.17283707-13.72839392c2.57407386-1.71604925 1.71604925-6.00617233-1.71604924-5.14814773l-31.74691093 5.14814773c-1.71604925 0-2.57407386-0.85802462-3.4320985-2.57407387l-1.71604923-15.44444316 3.43209849-19.73456626v0.85802462l3.43209846 31.74691094c0 1.71604925 1.71604925 2.57407386 3.4320985 2.57407386l31.74691094-5.14814772c4.29012309 0 5.14814772 4.29012309 2.57407385 5.14814772z" fill="#F4DD58" p-id="5503"></path><path d="M548.18518561 286.93211575c-1.71604925 0-3.43209849-0.85802462-4.29012312-1.71604924l-21.45061549-24.02468937-14.58641857 15.44444314-7.72222157 7.7222216c-2.57407386 2.57407386-5.14814772 2.57407386-7.72222159 0.85802463-2.57407386-1.71604925-3.43209849-5.14814772-1.71604922-7.72222158l15.44444314-28.31481249-28.31481245-13.72839394c-2.57407386-1.71604925-4.29012309-4.29012309-2.57407387-6.86419695 0.85802462-2.57407386 3.43209849-4.29012309 6.86419695-3.43209847l31.74691099 6.00617233 4.2901231-31.74691094c0.85802462-2.57407386 3.43209849-5.14814772 6.00617232-5.14814773 3.43209849 0 5.14814772 2.57407386 6.00617234 5.14814773l3.43209849 31.74691094 30.88888633-5.14814772c3.43209849-0.85802462 6.00617233 0.85802462 6.86419696 4.2901231 0.85802462 2.57407386 0 6.00617233-3.43209848 6.86419697l-29.17283709 13.72839391 6.00617235 9.43827082 9.43827082 18.01851705c1.71604925 2.57407386 0.85802462 6.00617233-1.71604924 7.72222157-1.71604925 0.85802462-2.57407386 0.85802462-4.2901231 0.85802464z m-23.16666474-30.88888634l1.71604923 0.85802461 19.73456626 21.45061552-12.8703693-25.74073863c-0.85802462-1.71604925-0.85802462-2.57407386 0-4.29012309s1.71604925-2.57407386 3.43209848-3.43209849l27.45678785-12.8703693-30.0308617 5.14814773c-1.71604925 0-3.43209849 0-4.29012312-0.85802462-0.85802462-0.85802462-1.71604925-2.57407386-2.57407384-4.29012311l-3.4320985-28.31481248-5.14814771 27.45678786c0 1.71604925-0.85802462 3.43209849-2.57407386 4.29012309-1.71604925 0.85802462-2.57407386 1.71604925-4.2901231 0.85802464l-28.31481248-5.14814773 25.74073862 12.87036931c1.71604925 0.85802462 2.57407386 1.71604925 2.57407386 3.43209847 0.85802462 1.71604925 0 3.43209849-0.85802463 4.29012311l-13.72839394 25.74073863 20.59259092-20.59259091c1.71604925-1.71604925 5.14814772-1.71604925 6.86419696-0.85802461z" fill="#961919" p-id="5504"></path></svg>