<?xml version="1.0" standalone="no"?><!DOCTYPE svg PUBLIC "-//W3C//DTD SVG 1.1//EN" "http://www.w3.org/Graphics/SVG/1.1/DTD/svg11.dtd"><svg t="1634281003398" class="icon" viewBox="0 0 1024 1024" version="1.1" xmlns="http://www.w3.org/2000/svg" p-id="5639" xmlns:xlink="http://www.w3.org/1999/xlink" width="200" height="200"><defs><style type="text/css"></style></defs><path d="M926.32754104 508.4740727h-114.40328272c-3.66090506-64.06583831-24.71110907-105.2510201-67.72674336-153.75801193l-2.74567879-2.74567882v-0.91522623c0-3.66090506-0.91522626-7.3218101-1.83045253-10.06748891l82.37036355-82.37036357c5.49135757-5.49135757 5.49135757-14.64362017 0-20.13497775-5.49135757-5.49135757-14.64362017-5.49135757-20.13497774 0l-84.20081607 84.20081609s0 0.91522626-0.91522628 0.91522626c-2.74567878-0.91522626-5.49135757-1.83045253-8.23703636-1.83045252-18.30452524-15.55884645-39.35472924-29.28724036-61.32015952-39.35472924-30.20246662-13.72839391-63.15061206-21.96543027-97.92921-23.79588284 0-1.83045253 0.91522626-2.74567878 0.91522624-4.57613129V135.06175792c0-8.23703635-6.40658382-14.64362017-14.64362016-14.64362017-8.23703635 0-14.64362017 6.40658382-14.64362021 14.64362017v120.80986658c-1.83045253 0.91522626-4.5761313 1.83045253-6.40658381 2.74567874-3.66090506 0-7.3218101 0.91522626-10.98271518 0.91522627-1.83045253 0-3.66090506 0-5.49135755 0.91522629-3.66090506 0.91522626-7.3218101 0.91522626-10.98271514 1.83045251-0.91522626 0-2.74567878 0.91522626-3.66090506 0.91522628-4.5761313 0.91522626-10.06748889 1.83045253-14.64362017 3.66090504-0.91522626 0-1.83045253 0.91522626-2.74567881 0.91522625-3.66090506 0.91522626-8.23703635 1.83045253-11.89794139 3.66090506-1.83045253 0.91522626-2.74567878 0.91522626-4.5761313 1.83045253-3.66090506 0.91522626-6.40658382 2.74567878-10.06748888 3.66090504-1.83045253 0.91522626-2.74567878 0.91522626-4.5761313 1.83045251-3.66090506 1.83045253-7.3218101 3.66090506-10.98271515 4.5761313-0.91522626 0-1.83045253 0.91522626-2.74567878 0.91522627-4.5761313 1.83045253-9.15226261 4.5761313-12.81316769 6.40658385-0.91522626 0.91522626-2.74567878 0.91522626-3.66090503 1.8304525-2.74567878 1.83045253-6.40658382 3.66090506-9.1522626 5.49135759-1.83045253 0.91522626-2.74567878 1.83045253-4.57613132 2.74567878-2.74567878 1.83045253-5.49135757 3.66090506-9.15226262 5.49135756-0.91522626 0.91522626-2.74567878 1.83045253-3.66090504 2.74567878-3.66090506 2.74567878-8.23703635 5.49135757-11.89794141 9.15226263-2.74567878 2.74567878-5.49135757 4.5761313-9.15226262 7.32181008-0.91522626-0.91522626-1.83045253-2.74567878-2.74567877-3.66090504l-84.2008161-84.20081608c-5.49135757-5.49135757-14.64362017-5.49135757-20.13497774 0-2.74567878 2.74567878-4.5761313 6.40658382-4.57613131 10.06748889 0 3.66090506 1.83045253 7.3218101 4.57613131 10.06748887l84.20081607 84.20081606c0.91522626 0.91522626 2.74567878 1.83045253 3.66090506 2.7456788-1.83045253 1.83045253-2.74567878 3.66090506-4.5761313 5.49135757l-2.7456788 2.74567881c-2.74567878 3.66090506-6.40658382 7.3218101-9.15226261 11.89794139-0.91522626 0.91522626-0.91522626 1.83045253-1.83045255 2.74567879-2.74567878 3.66090506-4.5761313 6.40658382-6.4065838 10.06748887 0 0.91522626-0.91522626 0.91522626-0.91522628 1.83045252-4.5761313 7.3218101-9.15226261 14.64362017-12.81316766 21.96543028l0.91522627-0.91522626c0 0.91522626-0.91522626 1.83045253-0.91522627 2.7456788-1.83045253 3.66090506-3.66090506 6.40658382-4.57613133 10.06748888-0.91522626 1.83045253-0.91522626 2.74567878-1.8304525 4.5761313-1.83045253 3.66090506-3.66090506 8.23703635-5.49135758 12.81316765 0 0.91522626-0.91522626 0.91522626-0.91522625 1.83045251-2.74567878 7.3218101-5.49135757 15.55884645-7.3218101 23.79588283v0.91522626c-0.91522626 4.5761313-2.74567878 10.06748889-3.66090504 14.64362019 0 0.91522626 0 1.83045253-0.91522627 3.66090506-0.91522626 3.66090506-1.83045253 8.23703635-1.83045253 11.89794139 0 1.83045253 0 3.66090506-0.91522626 5.49135756 0 3.66090506-0.91522626 7.3218101-0.91522625 10.98271514-1.83045253 1.83045253-3.66090506 4.5761313-5.49135757 7.3218101h-118.97941403c-8.23703635 0-14.64362017 6.40658382-14.64362019 14.64362016 0 8.23703635 6.40658382 14.64362017 14.64362019 14.64362023h118.97941403c1.83045253 2.74567878 2.74567878 5.49135757 5.49135757 7.32181009 4.5761313 60.40493329 29.28724036 114.40328272 67.72674336 156.50369072-0.91522626 0.91522626-2.74567878 1.83045253-3.66090503 2.7456788l-84.20081608 84.20081607c-5.49135757 5.49135757-5.49135757 14.64362017 0 20.13497775 2.74567878 2.74567878 6.40658382 4.5761313 10.06748886 4.57613132 3.66090506 0 7.3218101-1.83045253 10.06748889-4.57613132l84.20081608-84.20081605 0.91522626-0.91522626c0.91522626 0.91522626 1.83045253 0.91522626 2.74567877 0.91522626 0.91522626 0 1.83045253 0.91522626 2.7456788 0.91522623l5.49135757 5.49135761c49.42221811 43.01563429 89.69217365 63.15061206 153.75801196 67.72674334v114.40328272c0 8.23703635 6.40658382 14.64362017 14.64362021 14.64362021 8.23703635 0 14.64362017-6.40658382 14.64362016-14.64362021v-113.48805646c66.8115171-0.91522626 127.21645037-26.54156159 172.97776347-67.72674336l77.79423227 77.79423224c2.74567878 2.74567878 6.40658382 4.5761313 10.06748886 4.57613132 3.66090506 0 7.3218101-1.83045253 10.06748888-4.57613132 2.74567878-2.74567878 4.5761313-6.40658382 4.57613132-10.06748888s-1.83045253-7.3218101-4.57613132-10.06748886l-77.79423226-77.79423226c41.18518177-45.76131308 66.8115171-106.16624637 67.72674338-172.97776348h113.48805647c8.23703635 0 14.64362017-6.40658382 14.64362016-14.64362016 0.91522626-11.8979414-5.49135757-18.30452524-12.81316765-18.30452525z m-664.45426601 297.44853505v-7.32181007 7.32181007z m550.05098329-7.32181007v7.32181007-7.32181007z m-258.0938058-66.8115171c-3.66090506 0-7.3218101 0.91522626-10.98271514 0.91522626 0-0.91522626 0.91522626-1.83045253 0.91522626-2.74567879v-106.16624638h2.74567879c22.88065653 0 43.01563429-8.23703635 59.48970701-21.96543027l67.72674335 67.72674338c1.83045253 1.83045253 3.66090506 1.83045253 5.49135757 1.83045253s3.66090506-0.91522626 5.49135758-1.83045253c2.74567878-2.74567878 2.74567878-7.3218101 0-10.06748887l-67.72674336-67.72674338c13.72839391-15.55884645 21.96543027-36.60905046 21.96543027-59.48970701v-2.7456788h104.33579383c0.91522626 3.66090506 1.83045253 6.40658382 3.66090507 9.15226262-9.15226261 103.42056757-90.60739991 184.87570487-193.11274123 193.11274124z m140.9448443-346.8707532c28.37201411 32.94814542 47.59176558 75.04855346 51.25267065 121.72509279-1.83045253 2.74567878-2.74567878 6.40658382-3.66090504 9.15226263h-106.16624635l-2.74567878-10.98271513c-2.74567878-17.38929897-10.98271516-32.94814542-21.96543028-46.67653933l78.70945847-78.70945853c1.83045253 1.83045253 3.66090506 3.66090506 4.57613133 5.49135757z m-93.35307872 63.15061207s0 0.91522626 0 0c-5.49135757-4.5761313-10.98271516-9.15226261-17.38929895-11.89794142-11.8979414-6.40658382-25.62633533-10.06748889-39.35472925-10.98271513V322.68314158h2.74567879c50.33744441 0 97.01398373 18.30452524 132.70780795 47.59176563l-78.70945854 77.79423224z m-71.38764838-22.88065655c-21.05020402 1.83045253-41.18518177 10.06748889-56.74402822 23.79588282l-69.55719592-69.55719591c33.86337166-31.1176929 77.79423226-52.16789693 126.30122414-55.82880197v101.59011506z m-137.28393929-35.69382421l69.55719592 69.55719589c-2.74567878 2.74567878-4.5761313 5.49135757-7.32181009 9.15226263-1.83045253 3.66090506-1.83045253 7.3218101 1.83045251 10.06748888-1.83045253 2.74567878-2.74567878 5.49135757-4.57613131 9.15226261-3.66090506-0.91522626-8.23703635 0.91522626-9.15226261 4.5761313-2.74567878 8.23703635-4.5761313 16.4740727-5.49135757 24.71110907h-100.67488878c3.66090506-49.42221811 24.71110907-93.35307871 55.82880193-127.21645038z m-56.74402821 140.9448443h102.50534132c1.83045253 21.05020402 10.06748889 41.18518177 23.79588281 56.74402824l-77.79423226 77.79423225c-29.28724036-36.60905046-47.59176558-82.37036355-47.59176559-132.70780796-0.91522626-0.91522626-0.91522626-0.91522626-0.91522628-1.83045253z m60.40493326 143.69052309l75.96377974-75.9637797c2.74567878 1.83045253 4.5761313 4.5761313 7.32181011 6.40658382 11.8979414 8.23703635 25.62633533 14.64362017 40.26995551 16.47407269 2.74567878 0.91522626 5.49135757 1.83045253 9.15226263 1.83045254V731.78928057c-1.83045253 0-3.66090506 0-4.57613131 0.91522627-44.84608682-2.74567878-86.03126862-19.21975149-119.89464031-45.76131308-0.91522626-5.49135757-4.5761313-10.06748889-8.23703637-12.81316768z m140.02961806-421.00408037z m-191.28228869 78.70945847v5.49135759-5.49135759z m191.28228869 587.57526005v-7.3218101 7.3218101z m389.8863875-388.97116124v-7.32181009 7.32181009z" fill="#C4ADAD" p-id="5640"></path><path d="M687.45348673 335.49630926c-23.79588279-26.54156159-53.99834945-49.42221811-86.94649485-64.06583832-33.86337166-15.55884645-71.38764842-24.71110907-110.74237769-24.71110906C341.4979598 246.71936188 222.51854578 366.61400215 222.51854578 513.05020402c0 78.7094585 33.86337166 149.18188065 88.77694738 198.60409881 46.67653934 42.10040802 109.8271514 67.72674338 177.55389478 67.72674335 6.40658382 0 12.81316766 0 18.30452524-0.91522626 138.1991655-9.15226261 248.02631694-124.47077158 248.02631691-265.4156159 0-67.72674338-25.62633533-129.96212916-67.72674336-177.55389476z m-408.19091273 177.55389476c0-67.72674338 32.03291916-128.13167664 81.4551373-166.57117966 35.6938242-27.45678784 79.62468477-43.93086055 128.13167664-43.93086053 6.40658382 0 13.72839391 0 20.13497777 0.91522624 54.91357571 5.49135757 103.42056757 32.03291916 138.19916551 71.38764844 32.03291916 36.60905046 51.25267068 85.11604236 51.25267063 138.19916551 0 109.8271514-85.11604236 200.43455132-192.19751494 209.58681393-5.49135757 0.91522626-11.8979414 0.91522626-17.38929897 0.91522625-53.08312319 0-100.67488881-19.21975149-138.19916551-51.25267063-31.1176929-27.45678784-54.91357571-64.06583831-65.89629086-106.16624637-3.66090506-16.4740727-5.49135757-34.77859794-5.49135757-53.08312318z" fill="#FFFFFF" p-id="5641"></path><path d="M696.60574934 345.56379815c-41.18518177-47.59176558-109.8271514-67.72674338-177.55389477-67.72674338-147.35142815 0-266.33084217 118.97941402-266.33084214 266.33084217 0 68.64196964 20.13497775 136.36871298 67.72674336 177.55389476 54.91357571 47.59176558 98.84443627 67.72674338 177.55389476 67.72674336 147.35142815 0 266.33084217-118.97941402 266.33084214-266.33084216 0.91522626-78.7094585-20.13497775-122.64031907-67.72674335-177.55389475z m-408.19091274 177.55389475c0-116.23373522 94.26830495-209.58681393 209.58681395-209.58681393 63.15061206 0 119.89464028 28.37201411 158.33414327 72.30287466 36.60905046 55.82880198 46.67653934 55.82880198 51.25267068 138.19916553 7.3218101 115.31850898-94.26830495 209.58681393-209.58681395 209.58681395-63.15061206 0-92.43785244-15.55884645-138.19916552-51.25267067-43.01563429-39.35472924-71.38764842-96.09875748-71.38764843-159.24936954z" fill="#B7E2F9" p-id="5642"></path><path d="M755.18023009 513.05020402c0 147.35142815-118.97941402 266.33084217-266.33084215 266.33084216-8.23703635 0-15.55884645 0-21.9654303-0.91522626 138.1991655-9.15226261 248.02631694-124.47077158 248.02631693-265.4156159 0-68.64196964-25.62633533-130.87735542-67.72674335-177.55389476-23.79588279-26.54156159-53.99834945-49.42221811-86.94649487-64.06583832 50.33744441 8.23703635 97.01398373 28.37201411 128.13167662 64.06583832 46.67653934 54.91357571 66.8115171 98.84443627 66.81151712 177.55389476z" fill="#92DBF4" p-id="5643"></path><path d="M488.84938794 256.78685074c-7.3218101 0-13.72839391-6.40658382-13.72839393-13.72839395v-118.97941402c0-7.3218101 6.40658382-13.72839391 13.72839393-13.72839392s13.72839391 6.40658382 13.72839394 13.72839392v118.97941402c0 8.23703635-5.49135757 13.72839391-13.72839394 13.72839395z m0-132.70780797l-0.91522626 118.97941402v-118.97941402zM488.84938794 432.51029297c-3.66090506 0-7.3218101-2.74567878-7.32181012-7.32181007v-118.97941403c0-3.66090506 2.74567878-7.3218101 7.32181012-7.3218101s7.3218101 2.74567878 7.32181008 7.3218101v118.97941403c0 4.5761313-3.66090506 7.3218101-7.32181008 7.32181007zM297.56709923 336.41153549c-3.66090506 0-7.3218101-1.83045253-10.06748888-3.66090505l-84.20081608-84.20081607c-2.74567878-2.74567878-3.66090506-6.40658382-3.66090504-10.06748888 0-3.66090506 1.83045253-7.3218101 3.66090504-10.06748888 5.49135757-5.49135757 14.64362017-5.49135757 20.13497775 0l84.2008161 84.20081609c2.74567878 2.74567878 3.66090506 6.40658382 3.66090504 10.06748888 0 3.66090506-1.83045253 7.3218101-3.66090504 10.06748886-2.74567878 1.83045253-6.40658382 3.66090506-10.06748889 3.66090505z m-83.28558982-98.84443625l84.20081607 84.20081608-84.20081607-84.20081608zM419.29219205 450.81481824c-1.83045253 0-3.66090506-0.91522626-4.57613129-1.83045252l-84.2008161-84.20081609c-2.74567878-2.74567878-2.74567878-7.3218101 0-10.06748886s7.3218101-2.74567878 10.06748889 0l84.20081608 84.20081604c2.74567878 2.74567878 2.74567878 7.3218101 0 10.06748891-1.83045253 0.91522626-3.66090506 1.83045253-5.49135758 1.83045252zM218.85764072 527.6938242h-118.97941402c-7.3218101 0-13.72839391-6.40658382-13.72839394-13.72839392s6.40658382-13.72839391 13.72839394-13.72839392h118.97941402c7.3218101 0 13.72839391 6.40658382 13.72839396 13.72839392s-6.40658382 13.72839391-13.72839396 13.72839392z m-118.97941402-14.64362018l118.97941402 0.91522626-118.97941402-0.91522626zM400.9876668 520.37201412h-118.979414c-3.66090506 0-7.3218101-2.74567878-7.32181011-7.3218101s2.74567878-7.3218101 7.32181011-7.32181011h118.979414c3.66090506 0 7.3218101 2.74567878 7.32181008 7.32181011s-3.66090506 7.3218101-7.32181008 7.3218101zM213.36628317 803.17692897c-3.66090506 0-7.3218101-1.83045253-10.0674889-3.66090502s-3.66090506-6.40658382-3.66090504-10.06748889 1.83045253-7.3218101 3.66090504-10.06748888l84.20081608-84.20081608c5.49135757-5.49135757 14.64362017-5.49135757 20.13497777 0 2.74567878 2.74567878 3.66090506 6.40658382 3.66090504 10.06748888 0 3.66090506-1.83045253 7.3218101-3.66090504 10.06748887l-84.2008161 84.2008161c-2.74567878 1.83045253-6.40658382 3.66090506-10.06748885 3.66090502z m84.20081606-97.92920999l-84.20081606 83.28558981v0.91522627l84.20081606-84.20081608zM335.09137598 674.13002608c-1.83045253 0-3.66090506-0.91522626-4.57613132-1.83045251-2.74567878-2.74567878-2.74567878-7.3218101 0-10.06748888l84.2008161-84.20081606c2.74567878-2.74567878 7.3218101-2.74567878 10.06748886 0s2.74567878 7.3218101 0 10.06748885l-84.20081607 84.20081609c-1.83045253 0.91522626-3.66090506 1.83045253-5.49135757 1.83045251zM488.84938794 916.66498544c-7.3218101 0-13.72839391-6.40658382-13.72839393-13.72839391v-118.97941404c0-7.3218101 6.40658382-13.72839391 13.72839393-13.72839392s13.72839391 6.40658382 13.72839394 13.72839392v118.97941404c0 7.3218101-5.49135757 13.72839391-13.72839394 13.72839391z m0-132.70780795l-0.91522626 118.97941404v-118.97941404zM488.84938794 727.21314927c-3.66090506 0-7.3218101-2.74567878-7.32181012-7.32181011v-118.97941402c0-3.66090506 2.74567878-7.3218101 7.32181012-7.32181009s7.3218101 2.74567878 7.32181008 7.32181009v118.97941402c0 4.5761313-3.66090506 7.3218101-7.32181008 7.32181011zM764.33249269 803.17692897c-3.66090506 0-7.3218101-1.83045253-10.06748886-3.66090502l-84.20081607-84.2008161c-2.74567878-2.74567878-3.66090506-6.40658382-3.66090505-10.06748887 0-3.66090506 1.83045253-7.3218101 3.66090505-10.06748888 5.49135757-5.49135757 14.64362017-5.49135757 20.13497773 0l84.20081609 84.20081608c2.74567878 2.74567878 4.5761313 6.40658382 4.5761313 10.06748888s-1.83045253 7.3218101-4.5761313 10.06748889-6.40658382 3.66090506-10.06748889 3.66090502z m-84.20081605-98.84443627l84.20081605 84.20081609-84.20081605-84.20081609zM630.70945849 661.31685842c-1.83045253 0-3.66090506-0.91522626-4.5761313-1.83045251l-84.20081609-84.20081609c-2.74567878-2.74567878-2.74567878-7.3218101 0-10.06748887s7.3218101-2.74567878 10.06748889 0l84.20081609 84.20081608c2.74567878 2.74567878 2.74567878 7.3218101 0 10.06748888-2.74567878 1.83045253-3.66090506 1.83045253-5.49135759 1.83045251zM877.82054916 527.6938242h-118.97941403c-7.3218101 0-13.72839391-6.40658382-13.7283939-13.72839392s6.40658382-13.72839391 13.7283939-13.72839392h118.97941403c7.3218101 0 13.72839391 6.40658382 13.72839393 13.72839392s-5.49135757 13.72839391-13.72839393 13.72839392z m-118.97941403-14.64362018l118.97941403 0.91522626-118.97941403-0.91522626zM695.69052311 520.37201412h-118.97941405c-3.66090506 0-7.3218101-2.74567878-7.32181009-7.3218101s2.74567878-7.3218101 7.32181009-7.32181011h118.97941405c3.66090506 0 7.3218101 2.74567878 7.32181007 7.32181011s-3.66090506 7.3218101-7.32181007 7.3218101zM680.13167664 336.41153549c-3.66090506 0-7.3218101-1.83045253-10.06748888-3.66090505-2.74567878-2.74567878-3.66090506-6.40658382-3.66090505-10.06748886 0-3.66090506 1.83045253-7.3218101 3.66090505-10.06748888l84.20081607-84.20081609c5.49135757-5.49135757 14.64362017-5.49135757 20.13497775 0 2.74567878 2.74567878 4.5761313 6.40658382 4.5761313 10.06748888 0 3.66090506-1.83045253 7.3218101-4.5761313 10.06748888l-84.20081609 84.20081607c-2.74567878 1.83045253-6.40658382 3.66090506-10.06748885 3.66090505z m84.20081605-97.92921l-84.20081605 83.28558983v0.91522626l84.20081605-84.20081609zM558.40658382 450.81481824c-1.83045253 0-3.66090506-0.91522626-4.57613129-1.83045252-2.74567878-2.74567878-2.74567878-7.3218101 0-10.06748891l84.20081609-84.20081604c2.74567878-2.74567878 7.3218101-2.74567878 10.06748885 0s2.74567878 7.3218101 0 10.06748886l-84.20081608 84.20081609c-1.83045253 0.91522626-3.66090506 1.83045253-5.49135757 1.83045252z" fill="#961919" p-id="5644"></path><path d="M580.37201411 513.05020402c0 50.33744441-41.18518177 91.52262617-91.52262617 91.52262618-21.05020402 0-39.35472924-6.40658382-54.91357572-18.30452525-21.96543027-16.4740727-36.60905046-43.01563429-36.60905046-73.21810093 0-50.33744441 41.18518177-91.52262617 91.52262618-91.52262619 29.28724036 0 56.74402823 14.64362017 73.21810095 36.60905051 10.98271516 15.55884645 18.30452524 34.77859794 18.30452522 54.91357568z" fill="#FFFFFF" p-id="5645"></path><path d="M589.52427671 523.1176929c0 50.33744441-41.18518177 91.52262617-91.52262616 91.52262617-21.05020402 0-39.35472924-6.40658382-54.9135757-18.30452524-11.8979414-15.55884645-18.30452524-33.86337166-18.30452522-54.91357572 0-50.33744441 41.18518177-91.52262617 91.52262616-91.52262613 21.05020402 0 39.35472924 6.40658382 54.9135757 18.30452523 11.8979414 15.55884645 18.30452524 33.86337166 18.30452522 54.91357569z" fill="#FFC773" p-id="5646"></path><path d="M580.37201411 513.05020402c0 50.33744441-41.18518177 91.52262617-91.52262617 91.52262618-29.28724036 0-56.74402823-14.64362017-73.21810092-36.60905046 15.55884645 11.8979414 33.86337166 18.30452524 54.91357567 18.30452521 50.33744441 0 91.52262617-41.18518177 91.5226262-91.52262617 0-21.05020402-6.40658382-39.35472924-18.30452525-54.91357571 21.96543027 17.38929897 36.60905046 43.93086055 36.60905047 73.21810095z" fill="#FF9C31" p-id="5647"></path><path d="M488.84938794 611.89464028c-20.13497775 0-40.26995552-6.40658382-56.74402823-18.30452523-26.54156159-18.30452524-42.10040802-48.50699189-42.10040804-80.53991103 0-10.98271516 1.83045253-21.96543027 5.49135758-32.03291918 0.91522626-3.66090506 5.49135757-5.49135757 9.1522626-4.57613129 3.66090506 0.91522626 5.49135757 5.49135757 4.57613132 9.15226263-2.74567878 9.15226261-4.5761313 18.30452524-4.57613132 27.45678784 0 27.45678784 13.72839391 53.08312319 35.69382423 68.64196963 13.72839391 10.06748889 31.1176929 15.55884645 48.50699186 15.55884645 21.96543027 0 43.01563429-8.23703635 59.48970699-23.79588279 16.4740727-16.4740727 25.62633533-37.52427671 25.62633534-60.40493329 0-31.1176929-17.38929897-59.48970703-44.8460868-74.13332721-11.8979414-6.40658382-26.54156159-10.06748889-40.26995553-10.06748886-28.37201411 0-53.99834945 13.72839391-69.55719589 36.60905046-1.83045253 2.74567878-6.40658382 3.66090506-9.15226263 1.83045252-2.74567878-1.83045253-3.66090506-6.40658382-1.83045254-9.15226259 18.30452524-26.54156159 48.50699189-43.01563429 81.45513731-43.01563432 16.4740727 0 32.03291916 3.66090506 46.67653935 11.8979414 32.03291916 17.38929897 51.25267068 50.33744441 51.25267065 86.94649485 0 26.54156159-10.06748889 51.25267068-29.28724037 70.47242218-19.21975149 17.38929897-43.93086055 27.45678784-69.55719588 27.45678783z" fill="#961919" p-id="5648"></path><path d="M272.85599016 513.05020402c0 12.81316766-9.15226261 23.79588279-21.96543026 26.54156156-1.83045253 0-3.66090506 0.91522626-5.49135758 0.91522631-3.66090506 0-6.40658382-0.91522626-9.15226263-1.83045255-10.98271516-3.66090506-18.30452524-13.72839391-18.30452521-25.62633532 0-15.55884645 11.8979414-27.45678784 27.45678784-27.45678784 4.5761313 0 9.15226261 0.91522626 12.81316766 3.66090504 0.91522626 0 1.83045253 0.91522626 1.83045253 0.91522625 8.23703635 5.49135757 12.81316766 13.72839391 12.81316765 22.88065655z" fill="#FFFFFF" p-id="5649"></path><path d="M245.39920232 544.16789694c-3.66090506 0-7.3218101-0.91522626-10.06748886-1.83045252-11.8979414-4.5761313-20.13497775-15.55884645-20.13497778-29.2872404 0-17.38929897 13.72839391-31.1176929 31.11769291-31.11769291 4.5761313 0 10.06748889 0.91522626 14.64362017 3.66090507 0.91522626 0 1.83045253 0.91522626 2.74567878 1.83045252 9.15226261 5.49135757 13.72839391 15.55884645 13.72839394 25.62633532 0 14.64362017-10.06748889 27.45678784-24.71110905 30.20246666-2.74567878 0.91522626-4.5761313 0.91522626-7.32181011 0.91522626z m0-54.91357571c-12.81316766 0-23.79588279 10.98271516-23.79588281 23.79588279 0 10.06748889 6.40658382 19.21975149 15.55884645 22.88065654 4.5761313 1.83045253 9.15226261 1.83045253 12.81316767 0.91522626 10.98271516-2.74567878 19.21975149-11.8979414 19.21975149-23.7958828 0-8.23703635-3.66090506-15.55884645-10.98271514-20.13497776-0.91522626 0-0.91522626-0.91522626-1.83045253-0.91522626-2.74567878-1.83045253-7.3218101-2.74567878-10.98271513-2.74567877z" fill="#961919" p-id="5650"></path><path d="M282.92347904 513.05020402c0 15.55884645-11.8979414 27.45678784-27.45678783 27.45678787-3.66090506 0-6.40658382-0.91522626-9.15226262-1.83045255-7.3218101-4.5761313-11.8979414-13.72839391-11.89794141-22.88065654 0-15.55884645 11.8979414-27.45678784 27.45678785-27.45678786 3.66090506 0 6.40658382 0.91522626 9.15226262 1.83045253 6.40658382 5.49135757 11.8979414 13.72839391 11.89794139 22.88065655z" fill="#F9F18F" p-id="5651"></path><path d="M272.85599016 513.05020402c0 15.55884645-15.55884645 27.45678784-33.86337167 27.45678787-2.74567878 0-4.5761313 0-7.32181009-0.91522631 15.55884645-2.74567878 27.45678784-13.72839391 27.45678784-26.54156156 0-9.15226261-6.40658382-18.30452524-15.55884646-22.88065655-0.91522626-0.91522626-1.83045253-0.91522626-2.74567875-0.91522624h5.49135756c3.66090506 0 8.23703635 0.91522626 11.89794139 1.83045252 8.23703635 4.5761313 14.64362017 12.81316766 14.64362018 21.96543027z" fill="#FFD527" p-id="5652"></path><path d="M245.39920232 544.16789694c-3.66090506 0-7.3218101-0.91522626-10.06748886-1.83045252-11.8979414-4.5761313-20.13497775-15.55884645-20.13497778-29.2872404 0-17.38929897 13.72839391-31.1176929 31.11769291-31.11769291 4.5761313 0 10.06748889 0.91522626 14.64362017 3.66090507 0.91522626 0 1.83045253 0.91522626 2.74567878 1.83045252 9.15226261 5.49135757 13.72839391 15.55884645 13.72839394 25.62633532 0 14.64362017-10.06748889 27.45678784-24.71110905 30.20246666-2.74567878 0.91522626-4.5761313 0.91522626-7.32181011 0.91522626z m0-54.91357571c-12.81316766 0-23.79588279 10.98271516-23.79588281 23.79588279 0 10.06748889 6.40658382 19.21975149 15.55884645 22.88065654 4.5761313 1.83045253 9.15226261 1.83045253 12.81316767 0.91522626 10.98271516-2.74567878 19.21975149-11.8979414 19.21975149-23.7958828 0-8.23703635-3.66090506-15.55884645-10.98271514-20.13497776-0.91522626 0-0.91522626-0.91522626-1.83045253-0.91522626-2.74567878-1.83045253-7.3218101-2.74567878-10.98271513-2.74567877z" fill="#961919" p-id="5653"></path><path d="M751.51932506 513.05020402c0 12.81316766-9.15226261 23.79588279-21.96543029 26.54156156-1.83045253 0-3.66090506 0.91522626-5.49135757 0.91522631-3.66090506 0-6.40658382-0.91522626-9.15226263-1.83045255-10.98271516-3.66090506-18.30452524-13.72839391-18.30452523-25.62633532 0-15.55884645 11.8979414-27.45678784 27.45678786-27.45678784 4.5761313 0 9.15226261 0.91522626 12.81316766 3.66090504 0.91522626 0 1.83045253 0.91522626 1.83045252 0.91522625 8.23703635 5.49135757 12.81316766 13.72839391 12.81316768 22.88065655z" fill="#FFFFFF" p-id="5654"></path><path d="M724.0625372 544.16789694c-3.66090506 0-7.3218101-0.91522626-10.06748888-1.83045252-11.8979414-4.5761313-20.13497775-15.55884645-20.13497775-29.2872404 0-17.38929897 13.72839391-31.1176929 31.11769291-31.11769291 4.5761313 0 10.06748889 0.91522626 14.64362016 3.66090507 0.91522626 0 1.83045253 0.91522626 2.74567879 1.83045252 9.15226261 5.49135757 13.72839391 15.55884645 13.72839393 25.62633532 0 14.64362017-10.06748889 27.45678784-24.71110906 30.20246666-2.74567878 0.91522626-4.5761313 0.91522626-7.3218101 0.91522626z m0-54.91357571c-12.81316766 0-23.79588279 10.98271516-23.79588279 23.79588279 0 10.06748889 6.40658382 19.21975149 15.55884644 22.88065654 4.5761313 1.83045253 9.15226261 1.83045253 12.81316765 0.91522626 10.98271516-2.74567878 19.21975149-11.8979414 19.21975149-23.7958828 0-8.23703635-3.66090506-15.55884645-10.98271513-20.13497776-0.91522626 0-0.91522626-0.91522626-1.83045251-0.91522626-2.74567878-1.83045253-7.3218101-2.74567878-10.98271515-2.74567877z" fill="#961919" p-id="5655"></path><path d="M761.58681392 513.05020402c0 15.55884645-11.8979414 27.45678784-27.45678785 27.45678787-3.66090506 0-6.40658382-0.91522626-9.1522626-1.83045255-7.3218101-4.5761313-11.8979414-13.72839391-11.89794141-22.88065654 0-15.55884645 11.8979414-27.45678784 27.45678786-27.45678786 3.66090506 0 6.40658382 0.91522626 9.1522626 1.83045253 6.40658382 5.49135757 11.8979414 13.72839391 11.8979414 22.88065655z" fill="#F9F18F" p-id="5656"></path><path d="M751.51932506 513.05020402c0 15.55884645-15.55884645 27.45678784-33.86337168 27.45678787-2.74567878 0-4.5761313 0-7.32181009-0.91522631 15.55884645-2.74567878 27.45678784-13.72839391 27.45678784-26.54156156 0-9.15226261-6.40658382-18.30452524-15.55884645-22.88065655-0.91522626-0.91522626-1.83045253-0.91522626-2.74567878-0.91522624h5.49135757c3.66090506 0 8.23703635 0.91522626 11.89794139 1.83045252 8.23703635 4.5761313 14.64362017 12.81316766 14.6436202 21.96543027z" fill="#FFD527" p-id="5657"></path><path d="M724.0625372 544.16789694c-3.66090506 0-7.3218101-0.91522626-10.06748888-1.83045252-11.8979414-4.5761313-20.13497775-15.55884645-20.13497775-29.2872404 0-17.38929897 13.72839391-31.1176929 31.11769291-31.11769291 4.5761313 0 10.06748889 0.91522626 14.64362016 3.66090507 0.91522626 0 1.83045253 0.91522626 2.74567879 1.83045252 9.15226261 5.49135757 13.72839391 15.55884645 13.72839393 25.62633532 0 14.64362017-10.06748889 27.45678784-24.71110906 30.20246666-2.74567878 0.91522626-4.5761313 0.91522626-7.3218101 0.91522626z m0-54.91357571c-12.81316766 0-23.79588279 10.98271516-23.79588279 23.79588279 0 10.06748889 6.40658382 19.21975149 15.55884644 22.88065654 4.5761313 1.83045253 9.15226261 1.83045253 12.81316765 0.91522626 10.98271516-2.74567878 19.21975149-11.8979414 19.21975149-23.7958828 0-8.23703635-3.66090506-15.55884645-10.98271513-20.13497776-0.91522626 0-0.91522626-0.91522626-1.83045251-0.91522626-2.74567878-1.83045253-7.3218101-2.74567878-10.98271515-2.74567877z" fill="#961919" p-id="5658"></path><path d="M512.64527075 274.17614971c0 12.81316766-9.15226261 23.79588279-21.9654303 26.5415616-1.83045253 0-3.66090506 0.91522626-5.49135756 0.91522626-3.66090506 0-6.40658382-0.91522626-9.15226263-1.83045253-10.98271516-3.66090506-18.30452524-13.72839391-18.30452521-25.62633533 0-15.55884645 11.8979414-27.45678784 27.45678784-27.45678784 4.5761313 0 9.15226261 0.91522626 12.81316766 3.66090503 0.91522626 0 1.83045253 0.91522626 1.83045251 0.91522627 7.3218101 4.5761313 12.81316766 12.81316766 12.81316769 22.88065654z" fill="#FFFFFF" p-id="5659"></path><path d="M485.18848289 305.29384261c-3.66090506 0-7.3218101-0.91522626-10.06748888-1.83045254-11.8979414-4.5761313-20.13497775-15.55884645-20.13497775-29.28724036 0-17.38929897 13.72839391-31.1176929 31.11769287-31.11769292 5.49135757 0 10.06748889 0.91522626 14.64362019 3.66090508 0.91522626 0 1.83045253 0.91522626 2.74567878 1.8304525 9.15226261 5.49135757 13.72839391 15.55884645 13.72839395 25.62633534 0 14.64362017-10.06748889 27.45678784-24.71110909 30.20246665-2.74567878 0-5.49135757 0.91522626-7.32181007 0.91522625z m0-54.91357571c-12.81316766 0-23.79588279 10.98271516-23.79588281 23.79588281 0 10.06748889 6.40658382 19.21975149 15.55884645 22.88065654 4.5761313 1.83045253 9.15226261 1.83045253 12.81316766 0.91522628 10.98271516-2.74567878 19.21975149-11.8979414 19.21975152-23.79588282 0-8.23703635-3.66090506-15.55884645-10.98271516-20.13497776-0.91522626 0-0.91522626-0.91522626-1.83045253-0.91522624-3.66090506-1.83045253-7.3218101-2.74567878-10.98271513-2.74567881z" fill="#961919" p-id="5660"></path><path d="M521.79753338 274.17614971c0 15.55884645-11.8979414 27.45678784-27.45678789 27.45678786-3.66090506 0-6.40658382-0.91522626-9.1522626-1.83045253-7.3218101-4.5761313-11.8979414-13.72839391-11.89794139-22.88065653 0-15.55884645 11.8979414-27.45678784 27.45678782-27.45678786 3.66090506 0 6.40658382 0.91522626 9.15226265 1.83045252 7.3218101 4.5761313 11.8979414 12.81316766 11.89794141 22.88065654z" fill="#F9F18F" p-id="5661"></path><path d="M512.64527075 274.17614971c0 15.55884645-15.55884645 27.45678784-33.86337171 27.45678786-2.74567878 0-4.5761313 0-7.32181007-0.91522626 15.55884645-2.74567878 27.45678784-13.72839391 27.45678783-26.5415616 0-9.15226261-6.40658382-18.30452524-15.55884645-22.88065654-0.91522626-0.91522626-1.83045253-0.91522626-2.74567877-0.91522627h5.49135755c3.66090506 0 8.23703635 0.91522626 11.89794142 1.83045253 8.23703635 3.66090506 14.64362017 11.8979414 14.6436202 21.96543028z" fill="#FFD527" p-id="5662"></path><path d="M485.18848289 305.29384261c-3.66090506 0-7.3218101-0.91522626-10.06748888-1.83045254-11.8979414-4.5761313-20.13497775-15.55884645-20.13497775-29.28724036 0-17.38929897 13.72839391-31.1176929 31.11769287-31.11769292 5.49135757 0 10.06748889 0.91522626 14.64362019 3.66090508 0.91522626 0 1.83045253 0.91522626 2.74567878 1.8304525 9.15226261 5.49135757 13.72839391 15.55884645 13.72839395 25.62633534 0 14.64362017-10.06748889 27.45678784-24.71110909 30.20246665-2.74567878 0-5.49135757 0.91522626-7.32181007 0.91522625z m0-54.91357571c-12.81316766 0-23.79588279 10.98271516-23.79588281 23.79588281 0 10.06748889 6.40658382 19.21975149 15.55884645 22.88065654 4.5761313 1.83045253 9.15226261 1.83045253 12.81316766 0.91522628 10.98271516-2.74567878 19.21975149-11.8979414 19.21975152-23.79588282 0-8.23703635-3.66090506-15.55884645-10.98271516-20.13497776-0.91522626 0-0.91522626-0.91522626-1.83045253-0.91522624-3.66090506-1.83045253-7.3218101-2.74567878-10.98271513-2.74567881z" fill="#961919" p-id="5663"></path><path d="M349.73499615 351.05515572c0 12.81316766-9.15226261 23.79588279-21.96543028 26.54156157-1.83045253 0-3.66090506 0.91522626-5.49135757 0.91522626-3.66090506 0-6.40658382-0.91522626-9.1522626-1.83045253-10.98271516-3.66090506-18.30452524-13.72839391-18.30452527-25.6263353 0-15.55884645 11.8979414-27.45678784 27.45678787-27.45678788 4.5761313 0 9.15226261 0.91522626 12.81316768 3.66090505 0.91522626 0 1.83045253 0.91522626 1.83045252 0.91522626 7.3218101 4.5761313 12.81316766 12.81316766 12.81316765 22.88065657z" fill="#FFFFFF" p-id="5664"></path><path d="M322.2782083 381.25762233c-3.66090506 0-7.3218101-0.91522626-10.06748888-1.83045252-11.8979414-4.5761313-20.13497775-15.55884645-20.13497776-29.28724038 0-17.38929897 13.72839391-31.1176929 31.11769292-31.11769291 4.5761313 0 10.06748889 0.91522626 14.64362018 3.66090506 0.91522626 0 1.83045253 0.91522626 2.74567879 1.83045252 9.15226261 5.49135757 13.72839391 15.55884645 13.72839392 25.62633533 0 14.64362017-10.06748889 27.45678784-24.71110907 30.20246666-2.74567878 0.91522626-5.49135757 0.91522626-7.3218101 0.91522624z m0-54.91357571c-12.81316766 0-23.79588279 10.98271516-23.79588282 23.79588281 0 10.06748889 6.40658382 19.21975149 15.55884646 22.88065656 4.5761313 1.83045253 9.15226261 1.83045253 12.81316769 0.91522624 10.98271516-2.74567878 19.21975149-11.8979414 19.21975147-23.7958828 0-8.23703635-3.66090506-15.55884645-10.98271512-20.13497775-0.91522626 0-0.91522626-0.91522626-1.83045252-0.91522626-3.66090506-0.91522626-7.3218101-2.74567878-10.98271516-2.7456788z" fill="#961919" p-id="5665"></path><path d="M358.88725876 351.05515572c0 15.55884645-11.8979414 27.45678784-27.45678783 27.45678783-3.66090506 0-6.40658382-0.91522626-9.15226263-1.83045253-7.3218101-4.5761313-11.8979414-13.72839391-11.89794141-22.88065652 0-15.55884645 11.8979414-27.45678784 27.45678787-27.45678788 3.66090506 0 6.40658382 0.91522626 9.15226261 1.83045253 7.3218101 4.5761313 11.8979414 12.81316766 11.89794139 22.88065657z" fill="#F9F18F" p-id="5666"></path><path d="M349.73499615 351.05515572c0 15.55884645-15.55884645 27.45678784-33.86337166 27.45678783-2.74567878 0-4.5761313 0-7.32181013-0.91522626 15.55884645-2.74567878 27.45678784-13.72839391 27.45678786-26.54156157 0-9.15226261-6.40658382-18.30452524-15.55884643-22.88065657-0.91522626-0.91522626-1.83045253-0.91522626-2.7456788-0.91522626h5.49135759c3.66090506 0 8.23703635 0.91522626 11.8979414 1.83045254 8.23703635 3.66090506 14.64362017 11.8979414 14.64362017 21.96543029z" fill="#FFD527" p-id="5667"></path><path d="M322.2782083 381.25762233c-3.66090506 0-7.3218101-0.91522626-10.06748888-1.83045252-11.8979414-4.5761313-20.13497775-15.55884645-20.13497776-29.28724038 0-17.38929897 13.72839391-31.1176929 31.11769292-31.11769291 4.5761313 0 10.06748889 0.91522626 14.64362018 3.66090506 0.91522626 0 1.83045253 0.91522626 2.74567879 1.83045252 9.15226261 5.49135757 13.72839391 15.55884645 13.72839392 25.62633533 0 14.64362017-10.06748889 27.45678784-24.71110907 30.20246666-2.74567878 0.91522626-5.49135757 0.91522626-7.3218101 0.91522624z m0-54.91357571c-12.81316766 0-23.79588279 10.98271516-23.79588282 23.79588281 0 10.06748889 6.40658382 19.21975149 15.55884646 22.88065656 4.5761313 1.83045253 9.15226261 1.83045253 12.81316769 0.91522624 10.98271516-2.74567878 19.21975149-11.8979414 19.21975147-23.7958828 0-8.23703635-3.66090506-15.55884645-10.98271512-20.13497775-0.91522626 0-0.91522626-0.91522626-1.83045252-0.91522626-3.66090506-0.91522626-7.3218101-2.74567878-10.98271516-2.7456788z" fill="#961919" p-id="5668"></path><path d="M684.70780794 686.02796748c0 12.81316766-9.15226261 23.79588279-21.96543027 26.54156158-1.83045253 0-3.66090506 0.91522626-5.49135758 0.91522628-3.66090506 0-6.40658382-0.91522626-9.15226262-1.83045251-10.98271516-3.66090506-18.30452524-13.72839391-18.30452522-25.62633535 0-15.55884645 11.8979414-27.45678784 27.45678784-27.45678784 4.5761313 0 9.15226261 0.91522626 12.81316767 3.66090505 0.91522626 0 1.83045253 0.91522626 1.83045251 0.91522624 8.23703635 4.5761313 12.81316766 12.81316766 12.81316767 22.88065655z" fill="#FFFFFF" p-id="5669"></path><path d="M657.25102009 716.23043413c-3.66090506 0-7.3218101-0.91522626-10.06748887-1.83045254-11.8979414-4.5761313-20.13497775-15.55884645-20.13497776-29.28724036 0-17.38929897 13.72839391-31.1176929 31.11769291-31.1176929 4.5761313 0 10.06748889 0.91522626 14.64362017 3.66090506 0.91522626 0.91522626 1.83045253 0.91522626 2.74567877 1.83045252 9.15226261 5.49135757 13.72839391 15.55884645 13.72839392 25.62633532 0 14.64362017-10.06748889 27.45678784-24.71110904 30.20246662-2.74567878 0.91522626-4.5761313 0.91522626-7.3218101 0.91522628z m0-53.99834944c-12.81316766 0-23.79588279 10.98271516-23.79588279 23.79588279 0 10.06748889 6.40658382 19.21975149 15.55884643 22.88065654 4.5761313 1.83045253 9.15226261 1.83045253 12.81316766 0.91522627 10.98271516-2.74567878 19.21975149-11.8979414 19.21975149-23.79588281 0-8.23703635-3.66090506-15.55884645-10.98271512-20.13497775-0.91522626 0-0.91522626-0.91522626-1.83045255-0.91522625-3.66090506-1.83045253-7.3218101-2.74567878-10.98271512-2.74567879z" fill="#961919" p-id="5670"></path><path d="M693.86007057 686.02796748c0 15.55884645-11.8979414 27.45678784-27.45678786 27.45678786-3.66090506 0-6.40658382-0.91522626-9.15226262-1.83045251-7.3218101-4.5761313-11.8979414-13.72839391-11.89794139-22.88065656 0-15.55884645 11.8979414-27.45678784 27.45678784-27.45678785 3.66090506 0 6.40658382 0.91522626 9.15226261 1.83045251 7.3218101 4.5761313 11.8979414 12.81316766 11.89794142 22.88065655z" fill="#F9F18F" p-id="5671"></path><path d="M684.70780794 686.02796748c0 15.55884645-15.55884645 27.45678784-33.86337168 27.45678786-2.74567878 0-4.5761313 0-7.3218101-0.91522628 15.55884645-2.74567878 27.45678784-13.72839391 27.45678785-26.54156158 0-9.15226261-6.40658382-18.30452524-15.55884645-22.88065655-0.91522626-0.91522626-1.83045253-0.91522626-2.74567876-0.91522624h5.49135757c3.66090506 0 8.23703635 0.91522626 11.89794139 1.83045252 8.23703635 3.66090506 14.64362017 11.8979414 14.64362018 21.96543027z" fill="#FFD527" p-id="5672"></path><path d="M657.25102009 716.23043413c-3.66090506 0-7.3218101-0.91522626-10.06748887-1.83045254-11.8979414-4.5761313-20.13497775-15.55884645-20.13497776-29.28724036 0-17.38929897 13.72839391-31.1176929 31.11769291-31.1176929 4.5761313 0 10.06748889 0.91522626 14.64362017 3.66090506 0.91522626 0.91522626 1.83045253 0.91522626 2.74567877 1.83045252 9.15226261 5.49135757 13.72839391 15.55884645 13.72839392 25.62633532 0 14.64362017-10.06748889 27.45678784-24.71110904 30.20246662-2.74567878 0.91522626-4.5761313 0.91522626-7.3218101 0.91522628z m0-53.99834944c-12.81316766 0-23.79588279 10.98271516-23.79588279 23.79588279 0 10.06748889 6.40658382 19.21975149 15.55884643 22.88065654 4.5761313 1.83045253 9.15226261 1.83045253 12.81316766 0.91522627 10.98271516-2.74567878 19.21975149-11.8979414 19.21975149-23.79588281 0-8.23703635-3.66090506-15.55884645-10.98271512-20.13497775-0.91522626 0-0.91522626-0.91522626-1.83045255-0.91522625-3.66090506-1.83045253-7.3218101-2.74567878-10.98271512-2.74567879z" fill="#961919" p-id="5673"></path><path d="M684.70780794 340.98766681c0 12.81316766-9.15226261 23.79588279-21.96543027 26.54156161-1.83045253 0-3.66090506 0.91522626-5.49135758 0.91522627-3.66090506 0-6.40658382-0.91522626-9.15226262-1.83045254-10.98271516-3.66090506-18.30452524-13.72839391-18.30452522-25.62633534 0-15.55884645 11.8979414-27.45678784 27.45678784-27.45678783 4.5761313 0 9.15226261 0.91522626 12.81316767 3.66090501 0.91522626 0 1.83045253 0.91522626 1.83045251 0.91522629 8.23703635 5.49135757 12.81316766 13.72839391 12.81316767 22.88065653z" fill="#FFFFFF" p-id="5674"></path><path d="M657.25102009 372.10535972c-3.66090506 0-7.3218101-0.91522626-10.06748887-1.83045251-11.8979414-4.5761313-20.13497775-15.55884645-20.13497776-29.2872404 0-17.38929897 13.72839391-31.1176929 31.11769291-31.11769289 4.5761313 0 10.06748889 0.91522626 14.64362017 3.66090506 0.91522626 0 1.83045253 0.91522626 2.74567877 1.83045252 9.15226261 5.49135757 13.72839391 15.55884645 13.72839392 25.62633531 0 14.64362017-10.06748889 27.45678784-24.71110904 30.20246665-2.74567878 0.91522626-4.5761313 0.91522626-7.3218101 0.91522626z m0-54.91357573c-12.81316766 0-23.79588279 10.98271516-23.79588279 23.79588282 0 10.06748889 6.40658382 19.21975149 15.55884643 22.88065655 4.5761313 1.83045253 9.15226261 1.83045253 12.81316766 0.91522627 10.98271516-2.74567878 19.21975149-11.8979414 19.21975149-23.79588282 0-8.23703635-3.66090506-15.55884645-10.98271512-20.13497774-0.91522626 0-0.91522626-0.91522626-1.83045255-0.91522627-2.74567878-1.83045253-7.3218101-2.74567878-10.98271512-2.74567881z" fill="#961919" p-id="5675"></path><path d="M693.86007057 340.98766681c0 15.55884645-11.8979414 27.45678784-27.45678786 27.45678788-3.66090506 0-6.40658382-0.91522626-9.15226262-1.83045254-7.3218101-4.5761313-11.8979414-13.72839391-11.89794139-22.88065656 0-15.55884645 11.8979414-27.45678784 27.45678784-27.45678784 3.66090506 0 6.40658382 0.91522626 9.15226261 1.83045253 7.3218101 5.49135757 11.8979414 13.72839391 11.89794142 22.88065653z" fill="#F9F18F" p-id="5676"></path><path d="M684.70780794 340.98766681c0 15.55884645-15.55884645 27.45678784-33.86337168 27.45678788-2.74567878 0-4.5761313 0-7.3218101-0.91522627 15.55884645-2.74567878 27.45678784-13.72839391 27.45678785-26.54156161 0-9.15226261-6.40658382-18.30452524-15.55884645-22.88065653-0.91522626-0.91522626-1.83045253-0.91522626-2.74567876-0.91522629h5.49135757c3.66090506 0 8.23703635 0.91522626 11.89794139 1.83045253 8.23703635 4.5761313 14.64362017 12.81316766 14.64362018 21.96543029z" fill="#FFD527" p-id="5677"></path><path d="M657.25102009 372.10535972c-3.66090506 0-7.3218101-0.91522626-10.06748887-1.83045251-11.8979414-4.5761313-20.13497775-15.55884645-20.13497776-29.2872404 0-17.38929897 13.72839391-31.1176929 31.11769291-31.11769289 4.5761313 0 10.06748889 0.91522626 14.64362017 3.66090506 0.91522626 0 1.83045253 0.91522626 2.74567877 1.83045252 9.15226261 5.49135757 13.72839391 15.55884645 13.72839392 25.62633531 0 14.64362017-10.06748889 27.45678784-24.71110904 30.20246665-2.74567878 0.91522626-4.5761313 0.91522626-7.3218101 0.91522626z m0-54.91357573c-12.81316766 0-23.79588279 10.98271516-23.79588279 23.79588282 0 10.06748889 6.40658382 19.21975149 15.55884643 22.88065655 4.5761313 1.83045253 9.15226261 1.83045253 12.81316766 0.91522627 10.98271516-2.74567878 19.21975149-11.8979414 19.21975149-23.79588282 0-8.23703635-3.66090506-15.55884645-10.98271512-20.13497774-0.91522626 0-0.91522626-0.91522626-1.83045255-0.91522627-2.74567878-1.83045253-7.3218101-2.74567878-10.98271512-2.74567881z" fill="#961919" p-id="5678"></path><path d="M349.73499615 686.02796748c0 12.81316766-9.15226261 23.79588279-21.96543028 26.54156158-1.83045253 0-3.66090506 0.91522626-5.49135757 0.91522628-3.66090506 0-6.40658382-0.91522626-9.1522626-1.83045251-10.98271516-3.66090506-18.30452524-13.72839391-18.30452527-25.62633535 0-15.55884645 11.8979414-27.45678784 27.45678787-27.45678784 4.5761313 0 9.15226261 0.91522626 12.81316768 3.66090505 0.91522626 0 1.83045253 0.91522626 1.83045252 0.91522624 7.3218101 4.5761313 12.81316766 12.81316766 12.81316765 22.88065655z" fill="#FFFFFF" p-id="5679"></path><path d="M322.2782083 716.23043413c-3.66090506 0-7.3218101-0.91522626-10.06748888-1.83045254-11.8979414-4.5761313-20.13497775-15.55884645-20.13497776-29.28724036 0-17.38929897 13.72839391-31.1176929 31.11769292-31.1176929 4.5761313 0 10.06748889 0.91522626 14.64362018 3.66090506 0.91522626 0.91522626 1.83045253 0.91522626 2.74567879 1.83045252 9.15226261 5.49135757 13.72839391 15.55884645 13.72839392 25.62633532 0 14.64362017-10.06748889 27.45678784-24.71110907 30.20246662-2.74567878 0.91522626-5.49135757 0.91522626-7.3218101 0.91522628z m0-53.99834944c-12.81316766 0-23.79588279 10.98271516-23.79588282 23.79588279 0 10.06748889 6.40658382 19.21975149 15.55884646 22.88065654 4.5761313 1.83045253 9.15226261 1.83045253 12.81316769 0.91522627 10.98271516-2.74567878 19.21975149-11.8979414 19.21975147-23.79588281 0-8.23703635-3.66090506-15.55884645-10.98271512-20.13497775-0.91522626 0-0.91522626-0.91522626-1.83045252-0.91522625-3.66090506-1.83045253-7.3218101-2.74567878-10.98271516-2.74567879z" fill="#961919" p-id="5680"></path><path d="M358.88725876 686.02796748c0 15.55884645-11.8979414 27.45678784-27.45678783 27.45678786-3.66090506 0-6.40658382-0.91522626-9.15226263-1.83045251-7.3218101-4.5761313-11.8979414-13.72839391-11.89794141-22.88065656 0-15.55884645 11.8979414-27.45678784 27.45678787-27.45678785 3.66090506 0 6.40658382 0.91522626 9.15226261 1.83045251 7.3218101 4.5761313 11.8979414 12.81316766 11.89794139 22.88065655z" fill="#F9F18F" p-id="5681"></path><path d="M349.73499615 686.02796748c0 15.55884645-15.55884645 27.45678784-33.86337166 27.45678786-2.74567878 0-4.5761313 0-7.32181013-0.91522628 15.55884645-2.74567878 27.45678784-13.72839391 27.45678786-26.54156158 0-9.15226261-6.40658382-18.30452524-15.55884643-22.88065655-0.91522626-0.91522626-1.83045253-0.91522626-2.7456788-0.91522624h5.49135759c3.66090506 0 8.23703635 0.91522626 11.8979414 1.83045252 8.23703635 3.66090506 14.64362017 11.8979414 14.64362017 21.96543027z" fill="#FFD527" p-id="5682"></path><path d="M322.2782083 716.23043413c-3.66090506 0-7.3218101-0.91522626-10.06748888-1.83045254-11.8979414-4.5761313-20.13497775-15.55884645-20.13497776-29.28724036 0-17.38929897 13.72839391-31.1176929 31.11769292-31.1176929 4.5761313 0 10.06748889 0.91522626 14.64362018 3.66090506 0.91522626 0.91522626 1.83045253 0.91522626 2.74567879 1.83045252 9.15226261 5.49135757 13.72839391 15.55884645 13.72839392 25.62633532 0 14.64362017-10.06748889 27.45678784-24.71110907 30.20246662-2.74567878 0.91522626-5.49135757 0.91522626-7.3218101 0.91522628z m0-53.99834944c-12.81316766 0-23.79588279 10.98271516-23.79588282 23.79588279 0 10.06748889 6.40658382 19.21975149 15.55884646 22.88065654 4.5761313 1.83045253 9.15226261 1.83045253 12.81316769 0.91522627 10.98271516-2.74567878 19.21975149-11.8979414 19.21975147-23.79588281 0-8.23703635-3.66090506-15.55884645-10.98271512-20.13497775-0.91522626 0-0.91522626-0.91522626-1.83045252-0.91522625-3.66090506-1.83045253-7.3218101-2.74567878-10.98271516-2.74567879z" fill="#961919" p-id="5683"></path><path d="M512.64527075 752.8394846c0 12.81316766-9.15226261 23.79588279-21.9654303 26.54156158-1.83045253 0-3.66090506 0.91522626-5.49135756 0.91522628-3.66090506 0-6.40658382-0.91522626-9.15226263-1.83045254-10.98271516-3.66090506-18.30452524-13.72839391-18.30452521-25.62633532 0-15.55884645 11.8979414-27.45678784 27.45678784-27.45678784 4.5761313 0 9.15226261 0.91522626 12.81316766 3.660905 0.91522626 0 1.83045253 0.91522626 1.83045251 0.91522629 7.3218101 4.5761313 12.81316766 12.81316766 12.81316769 22.88065655z" fill="#FFFFFF" p-id="5684"></path><path d="M485.18848289 783.95717749c-3.66090506 0-7.3218101-0.91522626-10.06748888-1.83045252-11.8979414-4.5761313-20.13497775-15.55884645-20.13497775-29.28724037 0-17.38929897 13.72839391-31.1176929 31.11769287-31.1176929 5.49135757 0 10.06748889 0.91522626 14.64362019 3.66090506 0.91522626 0 1.83045253 0.91522626 2.74567878 1.83045251 9.15226261 5.49135757 13.72839391 15.55884645 13.72839395 25.62633533 0 14.64362017-10.06748889 27.45678784-24.71110909 30.20246663-2.74567878 0-5.49135757 0.91522626-7.32181007 0.91522626z m0-54.91357573c-12.81316766 0-23.79588279 10.98271516-23.79588281 23.79588284 0 10.06748889 6.40658382 19.21975149 15.55884645 22.88065654 4.5761313 1.83045253 9.15226261 1.83045253 12.81316766 0.91522625 10.98271516-2.74567878 19.21975149-11.8979414 19.21975152-23.79588279 0-8.23703635-3.66090506-15.55884645-10.98271516-20.13497776-0.91522626 0-0.91522626-0.91522626-1.83045253-0.91522627-3.66090506-1.83045253-7.3218101-2.74567878-10.98271513-2.74567881z" fill="#961919" p-id="5685"></path><path d="M521.79753338 752.8394846c0 15.55884645-11.8979414 27.45678784-27.45678789 27.45678786-3.66090506 0-6.40658382-0.91522626-9.1522626-1.83045254-7.3218101-4.5761313-11.8979414-13.72839391-11.89794139-22.88065652 0-15.55884645 11.8979414-27.45678784 27.45678782-27.4567879 3.66090506 0 6.40658382 0.91522626 9.15226265 1.83045255 7.3218101 4.5761313 11.8979414 12.81316766 11.89794141 22.88065655z" fill="#F9F18F" p-id="5686"></path><path d="M512.64527075 752.8394846c0 15.55884645-15.55884645 27.45678784-33.86337171 27.45678786-2.74567878 0-4.5761313 0-7.32181007-0.91522628 15.55884645-2.74567878 27.45678784-13.72839391 27.45678783-26.54156158 0-9.15226261-6.40658382-18.30452524-15.55884645-22.88065655-0.91522626-0.91522626-1.83045253-0.91522626-2.74567877-0.91522629h5.49135755c3.66090506 0 8.23703635 0.91522626 11.89794142 1.83045254 8.23703635 3.66090506 14.64362017 11.8979414 14.6436202 21.9654303z" fill="#FFD527" p-id="5687"></path><path d="M485.18848289 783.95717749c-3.66090506 0-7.3218101-0.91522626-10.06748888-1.83045252-11.8979414-4.5761313-20.13497775-15.55884645-20.13497775-29.28724037 0-17.38929897 13.72839391-31.1176929 31.11769287-31.1176929 5.49135757 0 10.06748889 0.91522626 14.64362019 3.66090506 0.91522626 0 1.83045253 0.91522626 2.74567878 1.83045251 9.15226261 5.49135757 13.72839391 15.55884645 13.72839395 25.62633533 0 14.64362017-10.06748889 27.45678784-24.71110909 30.20246663-2.74567878 0-5.49135757 0.91522626-7.32181007 0.91522626z m0-54.91357573c-12.81316766 0-23.79588279 10.98271516-23.79588281 23.79588284 0 10.06748889 6.40658382 19.21975149 15.55884645 22.88065654 4.5761313 1.83045253 9.15226261 1.83045253 12.81316766 0.91522625 10.98271516-2.74567878 19.21975149-11.8979414 19.21975152-23.79588279 0-8.23703635-3.66090506-15.55884645-10.98271516-20.13497776-0.91522626 0-0.91522626-0.91522626-1.83045253-0.91522627-3.66090506-1.83045253-7.3218101-2.74567878-10.98271513-2.74567881z" fill="#961919" p-id="5688"></path></svg>