<?xml version="1.0" standalone="no"?><!DOCTYPE svg PUBLIC "-//W3C//DTD SVG 1.1//EN" "http://www.w3.org/Graphics/SVG/1.1/DTD/svg11.dtd"><svg t="1634281024888" class="icon" viewBox="0 0 1024 1024" version="1.1" xmlns="http://www.w3.org/2000/svg" p-id="5819" xmlns:xlink="http://www.w3.org/1999/xlink" width="200" height="200"><defs><style type="text/css"></style></defs><path d="M829.86664212 809.16540574l-84.20081609-64.0658383c-0.91522626-0.91522626-1.83045253-2.74567878-1.83045251-3.66090505 0-1.83045253 0-2.74567878 0.91522625-4.57613133l67.72674339-82.37036354c3.66090506-4.5761313 3.66090506-11.8979414-0.91522626-16.4740727-1.83045253-1.83045253-2.74567878-2.74567878-4.5761313-2.7456788-2.74567878-0.91522626-4.5761313-0.91522626-7.3218101-0.91522624h-0.91522627c-0.91522626 0-2.74567878 0.91522626-3.66090505 1.83045253l-87.86172112 60.40493325c-0.91522626 0.91522626-2.74567878 0.91522626-4.57613131 0.91522625s-2.74567878-0.91522626-3.66090504-2.74567878l-57.65925451-89.69217364-2.74567877-2.74567881s-0.91522626 0-0.91522628-0.91522624c-0.91522626-0.91522626-1.83045253-0.91522626-2.74567878-1.83045253H629.43209081h-0.91522626s-0.91522626 0-0.91522627 0.91522626h-0.91522624l-0.91522627 0.91522627c-0.91522626 0-0.91522626 0.91522626-1.83045253 0.91522624s-0.91522626 0.91522626-1.83045254 1.83045254l-0.91522625 0.91522627c-0.91522626 0.91522626-0.91522626 0.91522626-0.91522626 1.8304525s0 1.83045253-0.91522624 2.7456788v1.83045253c0 0.91522626 0 2.74567878 0.91522624 4.57613131l31.11769291 101.59011503v4.57613131c-0.91522626 1.83045253-1.83045253 2.74567878-3.66090505 2.74567881l-18.30452524 4.57613129-26.54156158-223.31520785c-3.66090506-0.91522626-7.3218101-1.83045253-10.06748887-3.66090505l-2.7456788-26.54156157c0.91522626 0 0.91522626-0.91522626 1.83045253-0.91522628 2.74567878 0 6.40658382-0.91522626 9.15226262-2.74567879 0 0 0.91522626 0 1.83045252-0.91522625 14.64362017-7.3218101 18.30452524-21.96543027 11.8979414-33.8633717l-8.23703635-6.40658384-21.96543027-18.30452523-10.06748891-89.69217365h-0.91522625l-1.83045253-19.21975148c0.91522626 0 0.91522626-0.91522626 1.83045253-1.83045254l0.91522625-0.91522625c0.91522626-0.91522626 1.83045253-0.91522626 1.83045252-1.83045251s0.91522626-0.91522626 0.91522626-1.83045254l0.91522627-0.91522625c8.23703635-8.23703635 8.23703635-19.21975149 0-27.45678785 0-0.91522626-0.91522626-0.91522626-0.91522627-1.83045252-0.91522626-1.83045253-2.74567878-2.74567878-4.57613131-4.57613131l-106.16624634-87.86172114c-0.91522626-0.91522626-1.83045253-0.91522626-2.7456788-1.83045251v-46.67653936h49.42221815c3.66090506 0 6.40658382-2.74567878 6.40658384-6.40658383 0-3.66090506-2.74567878-6.40658382-6.40658384-6.40658382H397.8798466c-3.66090506 0-6.40658382 2.74567878-6.40658384 6.40658382 0 3.66090506 2.74567878 6.40658382 6.40658384 6.40658383h49.42221811v44.84608685c-2.74567878 0.91522626-5.49135757 1.83045253-8.23703633 3.66090502L334.72923454 261.86010126c-8.23703635 6.40658382-11.8979414 15.55884645-10.98271514 24.71110905 0.91522626 7.3218101 4.5761313 13.72839391 10.98271514 18.30452523L321.91606689 417.44856572l-10.06748889 8.23703636c-9.15226261 7.3218101-13.72839391 17.38929897-12.81316768 28.37201413 0 2.74567878 0.91522626 4.5761313 1.83045252 7.3218101 0 0.91522626 0.91522626 1.83045253 1.83045255 3.66090503 0.91522626 0.91522626 0.91522626 1.83045253 1.83045253 2.7456788 0.91522626 1.83045253 2.74567878 2.74567878 3.66090504 4.57613129l0.91522625 0.91522627c0.91522626 0.91522626 2.74567878 1.83045253 3.66090506 2.7456788l1.83045252 1.83045251-43.93086059 377.98844609c0 2.74567878 0 5.49135757 0.91522628 8.23703635v1.83045253c0 2.74567878 0.91522626 5.49135757 1.83045252 8.23703636 1.83045253 6.40658382 3.66090506 11.8979414 6.40658382 16.47407269 2.74567878 4.5761313 6.40658382 9.15226261 10.06748888 13.72839392l0.91522628 0.91522629 5.49135759 5.49135756c1.83045253 1.83045253 4.5761313 2.74567878 6.40658382 4.57613131 0 0 0.91522626 0 0.91522624 0.91522626 0 0 0.91522626 0 1.83045254 0.91522626s1.83045253 0.91522626 3.66090504 1.83045254c0.91522626 0 1.83045253 0.91522626 2.74567879 0.91522624 0.91522626 0 1.83045253 0.91522626 2.74567879 0.91522628 0.91522626 0 1.83045253 0.91522626 2.74567877 0.91522626 0.91522626 0 2.74567878 0.91522626 3.66090507 0.91522625 0.91522626 0 1.83045253 0 2.74567877 0.91522626h10.06748887c4.5761313 1.83045253 9.15226261 1.83045253 14.64362019 1.83045252h240.70450685c30.20246662 0 53.99834945-27.45678784 53.99834942-60.40493326l-10.06748887-85.11604236h19.21975149c1.83045253 0 2.74567878 0.91522626 4.5761313 1.83045254 0.91522626 0.91522626 1.83045253 2.74567878 0.91522626 3.66090503l-6.40658381 104.33579384v1.83045252c0 6.40658382 3.66090506 11.8979414 10.06748887 12.81316766h2.74567878c5.49135757 0 10.06748889-2.74567878 11.89794141-8.23703633l34.77859794-100.67488881 0.91522626-0.91522625c0.91522626-1.83045253 2.74567878-2.74567878 4.57613133-2.74567879h1.83045251l90.60739991 35.69382422 8.23703635 3.66090506c6.40658382 1.83045253 11.8979414 0 15.55884644-5.49135759 3.66090506-6.40658382 2.74567878-12.81316766-2.74567878-16.47407272z" fill="#C4ADAD" p-id="5820"></path><path d="M502.21564043 763.40409266l106.16624636 2.74567879c5.49135757 0 9.15226261 4.5761313 9.15226263 9.15226261l-6.40658383 104.33579384v1.83045253c-0.91522626 10.06748889 13.72839391 13.72839391 17.38929896 3.66090503l34.77859794-100.67488877c0-0.91522626 0.91522626-0.91522626 0.91522626-1.83045253 1.83045253-3.66090506 6.40658382-5.49135757 10.98271515-3.66090504l90.60739992 35.69382418 8.23703635 3.66090507c10.06748889 3.66090506 17.38929897-9.15226261 9.15226262-15.55884646l-84.20081608-64.0658383c-3.66090506-2.74567878-4.5761313-9.15226261-1.83045253-12.81316768l67.72674335-82.37036354c6.40658382-8.23703635-3.66090506-19.21975149-11.89794138-12.81316767l-6.40658384 3.66090506-81.45513731 56.74402821c-4.5761313 2.74567878-10.06748889 1.83045253-12.81316765-2.7456788l-0.91522625-0.91522625-56.74402823-87.86172113c-5.49135757-7.3218101-16.4740727-3.66090506-16.47407272 4.57613131v3.66090504l30.20246664 101.59011505c1.83045253 4.5761313-0.91522626 10.06748889-6.40658382 10.98271516L499.46996167 746.93001995c-9.15226261 1.83045253-7.3218101 16.4740727 2.74567876 16.47407271z" fill="#FFFFFF" p-id="5821"></path><path d="M620.27982819 895.19667434h-2.74567877c-6.40658382-0.91522626-10.06748889-6.40658382-10.06748889-12.81316766v-0.91522625l6.40658383-104.33579385c0-1.83045253 0-2.74567878-0.91522626-3.66090503-0.91522626-0.91522626-2.74567878-1.83045253-3.66090503-1.83045253l-106.16624636-2.74567878c-6.40658382 0-10.98271516-4.5761313-11.8979414-10.98271514-0.91522626-6.40658382 2.74567878-11.8979414 9.1522626-13.72839392l102.50534132-26.54156162c1.83045253 0 2.74567878-1.83045253 3.66090505-2.74567877 0.91522626-0.91522626 0.91522626-2.74567878 0-3.66090506l-31.11769293-101.59011504c-0.91522626-1.83045253-0.91522626-2.74567878-0.91522625-4.5761313 0-5.49135757 4.5761313-10.06748889 10.06748891-11.89794141 5.49135757-0.91522626 10.06748889 0.91522626 13.72839391 5.49135756l57.65925448 89.69217365c0.91522626 0.91522626 1.83045253 1.83045253 3.66090504 2.7456788 1.83045253 0 2.74567878 0 4.57613131-0.91522626l87.86172112-60.40493329c5.49135757-3.66090506 11.8979414-2.74567878 16.47407272 1.83045252s4.5761313 10.98271516 0.91522624 16.47407273l-67.72674334 82.37036355c-0.91522626 0.91522626-1.83045253 2.74567878-0.91522625 4.5761313 0 1.83045253 0.91522626 2.74567878 1.83045251 3.66090507l84.20081609 64.0658383c4.5761313 3.66090506 6.40658382 10.06748889 3.66090505 15.55884646-2.74567878 5.49135757-9.15226261 8.23703635-15.55884646 5.49135757l-8.23703634-3.66090505-90.60739993-35.6938242c-2.74567878-0.91522626-5.49135757 0-6.40658385 1.83045252l-0.91522625 0.91522625-34.77859792 100.67488881c-3.66090506 3.66090506-8.23703635 7.3218101-13.72839395 7.32181007z m-118.06418776-134.53826047l106.16624636 2.74567879c3.66090506 0 6.40658382 1.83045253 9.15226263 4.57613131 1.83045253 2.74567878 3.66090506 5.49135757 2.74567877 9.15226261l-6.40658383 104.33579385v0.91522625c0 3.66090506 2.74567878 5.49135757 4.57613133 6.40658384 1.83045253 0 5.49135757 0 6.40658381-3.66090506l34.77859794-100.67488877c0-1.83045253 0.91522626-2.74567878 1.83045253-3.66090505 2.74567878-4.5761313 9.15226261-6.40658382 14.64362019-4.57613132l98.84443627 38.43950298c3.66090506 0.91522626 6.40658382-0.91522626 7.32181011-2.74567877 0.91522626-1.83045253 0.91522626-4.5761313-1.83045253-7.32181011l-84.2008161-64.06583829c-2.74567878-1.83045253-4.5761313-5.49135757-4.57613128-8.23703636s0.91522626-6.40658382 2.74567877-9.15226261l67.72674334-82.37036355c1.83045253-2.74567878 0.91522626-5.49135757 0-7.32181011-1.83045253-1.83045253-4.5761313-2.74567878-7.32181008-0.91522626l-6.40658384 3.66090507-81.45513726 56.7440282c-2.74567878 1.83045253-6.40658382 2.74567878-10.06748891 1.83045252-3.66090506-0.91522626-6.40658382-2.74567878-8.23703634-5.49135757l-0.91522626-1.83045252-56.74402822-87.86172113c-1.83045253-2.74567878-4.5761313-2.74567878-5.49135757-2.74567877-1.83045253 0.91522626-4.5761313 2.74567878-4.57613135 5.49135754v1.83045254l31.11769292 101.59011504c0.91522626 2.74567878 0.91522626 6.40658382-0.91522624 9.15226263-1.83045253 2.74567878-4.5761313 5.49135757-8.23703636 6.40658382l-102.50534132 26.54156162c-3.66090506 0.91522626-4.5761313 3.66090506-3.66090504 6.40658383 0.91522626 3.66090506 1.83045253 5.49135757 5.49135756 6.40658381z" fill="#961919" p-id="5822"></path><path d="M502.21564043 763.40409266l106.16624636 2.74567879c5.49135757 0 9.15226261 4.5761313 9.15226263 9.15226261l-6.40658383 104.33579384 32.94814541-95.18353121c1.83045253-4.5761313 7.3218101-7.3218101 11.8979414-5.49135757l9.1522626 3.66090504c1.83045253-3.66090506 6.40658382-5.49135757 10.98271516-3.66090504l90.60739993 35.69382418c2.74567878-3.66090506 2.74567878-9.15226261-1.83045256-12.81316767l-84.20081605-64.06583828c-3.66090506-2.74567878-4.5761313-9.15226261-1.83045251-12.81316767l67.72674334-82.37036355c2.74567878-2.74567878 2.74567878-6.40658382 0.91522626-9.15226263l-81.4551373 56.74402823c-4.5761313 2.74567878-10.06748889 1.83045253-12.81316766-2.74567879l-0.91522626-0.91522627-5.49135757 3.66090506c-4.5761313 2.74567878-10.06748889 1.83045253-12.81316764-2.74567879l-54.91357573-85.11604236v3.66090507l30.20246666 101.59011504c1.83045253 4.5761313-0.91522626 10.06748889-6.40658384 10.98271514l-102.50534132 26.54156161c-10.06748889 3.66090506-8.23703635 18.30452524 1.83045252 18.30452522z" fill="#F9F18F" p-id="5823"></path><path d="M502.21564043 763.40409266l106.16624636 2.74567879c5.49135757 0 9.15226261 4.5761313 9.15226263 9.15226261l-6.40658383 104.33579384 23.79588278-66.81151711 1.83045253-37.52427673c0-5.49135757-3.66090506-9.15226261-9.15226262-9.15226261l-106.16624635-2.74567879c-10.06748889 0-11.8979414-15.55884645-1.83045251-18.30452522l102.50534128-26.54156161c5.49135757-0.91522626 8.23703635-6.40658382 6.40658385-10.98271514l-15.55884645-50.33744438-35.69382422-54.91357573v3.66090507l30.20246665 101.59011504c1.83045253 4.5761313-0.91522626 10.06748889-6.40658382 10.98271514l-102.50534132 26.54156161c-8.23703635 3.66090506-6.40658382 18.30452524 3.66090504 18.30452522z" fill="#F4DD58" p-id="5824"></path><path d="M620.27982819 895.19667434h-2.74567877c-6.40658382-0.91522626-10.06748889-6.40658382-10.06748889-12.81316766l6.40658383-106.16624636c0-1.83045253 0-2.74567878-0.91522626-3.66090503-0.91522626-0.91522626-2.74567878-1.83045253-3.66090503-1.83045253l-106.16624636-2.74567879c-6.40658382 0-10.98271516-4.5761313-11.8979414-10.98271513-0.91522626-6.40658382 2.74567878-11.8979414 9.1522626-13.72839394l102.50534132-26.54156158c1.83045253 0 2.74567878-1.83045253 3.66090505-2.7456788 0.91522626-0.91522626 0.91522626-2.74567878 0-3.66090503l-31.11769293-101.59011505c-1.83045253-6.40658382 0.91522626-11.8979414 7.32181009-14.6436202 5.49135757-2.74567878 11.8979414-0.91522626 15.55884648 4.5761313l57.65925448 89.69217365c0.91522626 0.91522626 1.83045253 1.83045253 3.66090504 2.7456788 1.83045253 0 2.74567878 0 4.57613131-0.91522626l87.86172112-60.40493329c5.49135757-3.66090506 11.8979414-2.74567878 16.47407272 1.83045252s4.5761313 10.98271516 0.91522624 16.47407273l-67.72674334 82.37036355c-0.91522626 0.91522626-1.83045253 2.74567878-0.91522625 4.5761313 0 1.83045253 0.91522626 2.74567878 1.83045251 3.66090507l84.20081609 64.0658383c4.5761313 3.66090506 6.40658382 10.06748889 3.66090505 15.55884646-2.74567878 5.49135757-9.15226261 8.23703635-15.55884646 5.49135757l-98.84443627-38.43950301c-2.74567878-0.91522626-5.49135757 0-6.40658385 1.83045253l-0.91522625 0.91522626-34.77859792 100.6748888c-3.66090506 2.74567878-8.23703635 6.40658382-13.72839395 6.40658382z m-118.06418776-134.53826047l106.16624636 2.74567879c3.66090506 0 6.40658382 1.83045253 9.15226263 4.57613131 1.83045253 2.74567878 3.66090506 5.49135757 2.74567877 9.15226261l-6.40658383 106.16624636c0 3.66090506 2.74567878 5.49135757 4.57613133 5.49135758s5.49135757 0 6.40658381-3.66090506l34.77859794-100.67488877c0-1.83045253 0.91522626-2.74567878 1.83045253-3.66090505 2.74567878-4.5761313 9.15226261-6.40658382 14.64362019-4.57613132l98.84443627 38.43950298c3.66090506 0.91522626 6.40658382-0.91522626 7.32181011-2.74567877 0.91522626-1.83045253 0.91522626-4.5761313-1.83045253-7.32181011l-84.2008161-64.06583829c-2.74567878-1.83045253-4.5761313-5.49135757-4.57613128-8.23703636s0.91522626-6.40658382 2.74567877-9.15226261l67.72674334-82.37036355c1.83045253-2.74567878 0.91522626-5.49135757 0-7.32181011-1.83045253-1.83045253-4.5761313-2.74567878-7.32181008-0.91522626l-87.8617211 60.40493327c-2.74567878 1.83045253-6.40658382 2.74567878-10.06748891 1.83045252-3.66090506-0.91522626-6.40658382-2.74567878-8.23703634-5.49135757l-0.91522626-1.83045252-56.74402822-87.86172113c-1.83045253-2.74567878-4.5761313-2.74567878-7.32181009-1.83045252-1.83045253 0.91522626-4.5761313 3.66090506-2.74567883 6.40658383l30.20246668 101.59011504c0.91522626 2.74567878 0.91522626 6.40658382-0.91522628 9.15226263-1.83045253 2.74567878-4.5761313 5.49135757-8.23703634 6.40658382l-102.5053413 26.54156162c-3.66090506 0.91522626-4.5761313 3.66090506-3.66090505 6.40658383 1.83045253 3.66090506 2.74567878 5.49135757 6.40658381 6.40658381z" fill="#961919" p-id="5825"></path><path d="M530.58765455 411.95720817L450.96296978 345.14569103l-24.71110907-20.13497774-2.74567878-1.83045253-7.32181009-6.40658382c-5.49135757-4.5761313-13.72839391-4.5761313-19.21975149 0l-34.77859795 28.37201409-15.55884646 12.8131677-36.60905046 32.03291913-26.54156161 21.96543031 13.72839396-118.97941402c10.06748889 5.49135757 23.79588279 4.5761313 32.9481454-2.7456788l72.30287468-59.48970701c2.74567878-2.74567878 7.3218101-2.74567878 10.06748887 0l12.81316768 10.98271512 16.4740727 13.72839395 40.26995549 33.86337169c5.49135757 4.5761313 11.8979414 7.3218101 18.30452526 7.32181009 5.49135757 0 10.06748889 0 14.64362018-2.74567879 0 0 0.91522626 0 0.91522627-0.91522625l1.83045252 13.72839392 7.3218101 65.89629083 3.66090505 31.11769291 1.83045252 8.23703636z" fill="#FFFFFF" p-id="5826"></path><path d="M539.73991715 427.51605461L412.52346678 322.26503451c-2.74567878-2.74567878-7.3218101-2.74567878-10.06748887 0l-128.13167665 105.2510201 17.38929897-146.43620187 9.15226261 5.49135757c7.3218101 4.5761313 18.30452524 3.66090506 24.71110907-1.83045253l72.30287469-59.48970701c5.49135757-4.5761313 13.72839391-4.5761313 19.21975151 0l70.47242214 58.57448076c3.66090506 3.66090506 9.15226261 5.49135757 14.64362018 6.40658382 4.5761313 0 8.23703635 0 10.98271515-1.83045252l9.15226259-6.40658384 1.83045255 10.98271516 15.55884643 134.53826046zM407.03210922 306.70618807c4.5761313 0 10.06748889 1.83045253 13.72839392 4.5761313l34.77859793 28.37201411 66.8115171 54.91357571-10.98271511-93.3530787c-3.66090506 0.91522626-7.3218101 0.91522626-10.98271515 0.91522625-8.23703635-0.91522626-15.55884645-3.66090506-21.96543029-9.15226259L407.94733547 234.40331339h-1.83045251l-72.30287469 59.48970701c-8.23703635 7.3218101-20.13497775 9.15226261-31.11769288 6.40658384l-10.98271516 93.3530787 100.67488881-83.28558984c4.5761313-1.83045253 10.06748889-3.66090506 14.64362018-3.66090503z" fill="#961919" p-id="5827"></path><path d="M538.8246909 411.95720817l-55.82880198-46.67653936-34.77859795-28.37201411c-3.66090506-2.74567878-8.23703635-3.66090506-12.81316765-2.74567878l-10.06748886-8.23703636c-5.49135757-4.5761313-13.72839391-4.5761313-19.2197515 0l-34.77859795 28.37201413-53.08312317 43.93086054 10.06748886-86.03126859c10.06748889 5.49135757 23.79588279 4.5761313 32.94814542-2.74567879l72.30287468-59.48970702s0.91522626 0 0.91522626-0.91522626c2.74567878-1.83045253 6.40658382-1.83045253 10.0674889 0.91522626l65.89629084 54.91357571 4.57613129 3.66090505c3.66090506 2.74567878 8.23703635 5.49135757 13.72839394 6.40658383l10.06748887 97.01398375z" fill="#FFC773" p-id="5828"></path><path d="M529.67242827 403.72017181l-37.52427671-31.11769291-7.32181012-65.89629083-1.83045252-13.72839392s-0.91522626 0-0.91522627 0.91522625c-4.5761313 2.74567878-10.06748889 3.66090506-14.64362018 2.74567879-6.40658382-0.91522626-12.81316766-3.66090506-18.30452523-7.32181009l-40.26995549-33.86337169 16.47407271-13.72839395s0.91522626 0 0.91522625-0.91522625c2.74567878-1.83045253 6.40658382-1.83045253 10.06748889 0.91522625l65.89629083 54.91357573 4.57613131 3.66090505c3.66090506 2.74567878 8.23703635 5.49135757 13.72839393 6.40658383l9.1522626 97.01398374z" fill="#FF9C31" p-id="5829"></path><path d="M581.84032522 845.77445622c0 32.94814542-24.71110907 60.40493329-53.99834946 60.40493328H287.13746894c-8.23703635 0-16.4740727-1.83045253-23.79588281-6.40658385-18.30452524-10.06748889-31.1176929-30.20246662-31.1176929-54.91357568L277.06998005 464.12510508c11.8979414 5.49135757 26.54156159 3.66090506 36.60905046-4.57613131l86.94649488-72.30287467c3.66090506-2.74567878 9.15226261-2.74567878 12.81316766 0l85.11604234 70.47242215c10.98271516 9.15226261 25.62633533 11.8979414 38.439503 6.40658383l2.74567876 24.71110906 42.10040807 356.93824208z" fill="#FFFFFF" p-id="5830"></path><path d="M526.92674951 913.50119959H287.13746894c-9.15226261 0-18.30452524-1.83045253-26.5415616-6.40658385-21.05020402-10.98271516-34.77859794-34.77859794-34.77859796-60.40493324l45.7613131-391.71684003 8.23703634 3.66090504c10.06748889 4.5761313 21.96543027 2.74567878 29.28724039-3.66090504l86.94649489-72.30287467c6.40658382-4.5761313 14.64362017-4.5761313 21.05020401 0l85.11604232 70.47242216c9.15226261 7.3218101 21.96543027 10.06748889 31.1176929 5.49135755l9.15226261-4.5761313 45.7613131 391.71684001c0 36.60905046-27.45678784 67.72674338-61.32015953 67.72674337zM282.56133761 472.36214143l-43.93086054 373.41231479c0 20.13497775 10.98271516 39.35472924 27.45678783 47.59176561 6.40658382 3.66090506 12.81316766 5.49135757 20.13497775 5.49135755h240.70450686c26.54156159 0 47.59176558-23.79588279 47.59176559-53.08312316L531.5028808 472.36214143c-12.81316766 2.74567878-26.54156159-0.91522626-37.52427671-10.06748887l-85.11604234-70.47242216c-0.91522626-0.91522626-2.74567878-0.91522626-3.66090506 0l-86.94649485 72.30287468c-10.06748889 8.23703635-22.88065653 10.98271516-35.69382423 8.23703635z" fill="#961919" p-id="5831"></path><path d="M599.22962419 854.01149257c0 32.94814542-24.71110907 60.40493329-53.99834946 60.40493327H304.52676792c-8.23703635 0-16.4740727-1.83045253-23.79588282-6.40658382-5.49135757-9.15226261-8.23703635-20.13497775-8.23703637-32.03291918l44.84608683-381.64935111c11.8979414 5.49135757 26.54156159 3.66090506 36.60905047-4.57613132l86.94649486-72.30287469c3.66090506-2.74567878 9.15226261-2.74567878 12.81316767 0l85.11604234 70.47242217c5.49135757 4.5761313 11.8979414 7.3218101 19.2197515 9.1522626l41.18518179 356.93824208z" fill="#B7E2F9" p-id="5832"></path><path d="M581.84032522 845.77445622c0 32.94814542-24.71110907 60.40493329-53.99834946 60.40493328h-44.84608684c30.20246662 0 53.99834945-27.45678784 53.99834947-60.40493328l-44.84608683-381.64935114c-12.81316766 5.49135757-28.37201411 2.74567878-38.439503-6.40658383l-43.93086055-36.60905048 13.72839392-11.8979414c3.66090506-2.74567878 9.15226261-2.74567878 12.81316767 0l85.11604233 70.47242214c5.49135757 4.5761313 11.8979414 7.3218101 19.2197515 9.15226263l41.18518179 356.93824208z" fill="#54D8FC" p-id="5833"></path><path d="M538.8246909 463.20987883s-0.91522626 0-1.83045251 0.91522625c-12.81316766 5.49135757-28.37201411 2.74567878-38.439503-6.40658383l-85.11604234-70.47242215c-3.66090506-2.74567878-9.15226261-2.74567878-12.81316766 0L313.67903051 459.54897377c-10.06748889 8.23703635-24.71110907 10.06748889-36.60905046 4.57613131-0.91522626 0-1.83045253-0.91522626-2.74567879-0.91522625-16.4740727-9.15226261-17.38929897-28.37201411-2.74567878-41.1851818l11.89794139-10.06748886 79.62468478-65.89629085 34.77859795-28.37201413c5.49135757-4.5761313 13.72839391-4.5761313 19.21975151 0l34.77859792 28.37201413 79.62468477 65.89629085 13.72839393 10.98271512c2.74567878 1.83045253 4.5761313 4.5761313 5.49135757 6.40658384 6.40658382 11.8979414 2.74567878 26.54156159-11.8979414 33.8633717z" fill="#FFFFFF" p-id="5834"></path><path d="M556.21398986 463.20987883s-0.91522626 0-1.83045251 0.91522625c-12.81316766 5.49135757-28.37201411 2.74567878-38.43950299-6.40658383l-85.11604234-70.47242215c-3.66090506-2.74567878-9.15226261-2.74567878-12.81316767 0l-86.94649486 72.30287467c-10.06748889 8.23703635-24.71110907 10.06748889-36.60905046 4.57613131-0.91522626 0-1.83045253-0.91522626-2.7456788-0.91522625-4.5761313-9.15226261-1.83045253-21.05020402 8.23703634-30.20246666l11.89794143-10.06748888 79.62468476-65.89629085 34.77859795-28.37201409c5.49135757-4.5761313 13.72839391-4.5761313 19.2197515 0l34.77859793 28.37201409 79.62468478 65.89629085 8.23703635 6.40658384c6.40658382 11.8979414 2.74567878 26.54156159-11.89794141 33.8633717z" fill="#F9F18F" p-id="5835"></path><path d="M390.5580365 395.48313545l-76.87900599 64.06583832c-10.06748889 8.23703635-24.71110907 10.06748889-36.60905046 4.57613131-0.91522626 0-1.83045253-0.91522626-2.74567879-0.91522625 1.83045253-0.91522626 3.66090506-1.83045253 5.49135756-3.66090506l86.94649487-72.30287467c3.66090506-2.74567878 9.15226261-2.74567878 12.81316767 0l10.98271514 8.23703635zM538.8246909 463.20987883s-0.91522626 0-1.83045251 0.91522625c-10.06748889 4.5761313-21.05020402 3.66090506-31.1176929-1.83045252 16.4740727-9.15226261 18.30452524-28.37201411 4.57613131-39.35472927L496.72428287 411.95720817l-79.62468476-65.89629085-14.6436202-11.8979414 6.40658384-5.49135757c5.49135757-4.5761313 13.72839391-4.5761313 19.21975148 0l34.77859793 28.37201409 79.62468478 65.89629085 8.23703636 6.40658384c6.40658382 11.8979414 2.74567878 26.54156159-11.8979414 33.8633717z" fill="#FFD527" p-id="5836"></path><path d="M516.85926063 292.06256788s-0.91522626 0-0.91522627 0.91522627c-4.5761313 2.74567878-10.06748889 3.66090506-14.64362019 2.74567877-6.40658382-0.91522626-12.81316766-3.66090506-18.30452525-7.32181009l-57.65925446-47.59176562-12.81316768-10.98271514c-2.74567878-2.74567878-7.3218101-2.74567878-10.06748887 0L330.15310323 289.3168891c-5.49135757 4.5761313-11.8979414 6.40658382-18.30452523 6.40658382-4.5761313 0-10.06748889-0.91522626-13.72839393-3.66090504-13.72839391-7.3218101-14.64362017-23.79588279-1.8304525-33.8633717l7.32181006-5.49135756 68.64196963-56.74402821 28.37201413-23.79588281c4.5761313-3.66090506 10.98271516-3.66090506 15.55884645 0l10.98271512 9.15226262 17.389299 14.64362019 68.64196962 56.74402821 8.23703635 7.32181011c10.06748889 8.23703635 9.15226261 24.71110907-4.5761313 32.03291915z" fill="#FFFFFF" p-id="5837"></path><path d="M525.09629698 292.06256788s-0.91522626 0-0.91522626 0.91522627c-4.5761313 2.74567878-10.06748889 3.66090506-15.55884646 2.74567877l-68.64196964-54.91357571c-2.74567878-1.83045253-7.3218101-2.74567878-10.06748886-0.91522626l-13.72839392-10.98271513c-3.66090506-2.74567878-8.23703635-2.74567878-10.98271515 0L328.3226507 289.3168891c-5.49135757 4.5761313-12.81316766 6.40658382-19.21975149 6.40658382-5.49135757-8.23703635-2.74567878-18.30452524 6.40658383-26.54156158l7.3218101-5.49135756 72.30287469-56.74402824 30.20246663-23.79588282c0.91522626-0.91522626 2.74567878-1.83045253 4.5761313-1.8304525l18.30452521 14.64362019 72.3028747 56.74402821 9.1522626 7.32181011c10.98271516 8.23703635 10.06748889 24.71110907-4.57613129 32.03291915z" fill="#F9F18F" p-id="5838"></path><path d="M516.85926063 292.06256788s-0.91522626 0-0.91522627 0.91522627c-4.5761313 2.74567878-10.06748889 3.66090506-14.64362019 2.74567877l-10.98271513-9.15226261c7.3218101-8.23703635 6.40658382-20.13497775-2.74567879-27.45678784l-9.15226263-6.40658385-68.64196961-56.74402821-0.91522626-0.91522628 13.72839391-10.98271513c0.91522626-0.91522626 2.74567878-1.83045253 3.66090505-1.83045254l17.38929897 14.64362019 68.64196963 56.74402826 8.23703636 7.32181006c10.98271516 7.3218101 10.06748889 23.79588279-3.66090504 31.11769291zM390.5580365 238.9794447L330.15310323 289.3168891c-5.49135757 4.5761313-11.8979414 6.40658382-18.30452523 6.40658382-3.66090506-5.49135757-3.66090506-12.81316766 0-18.30452523l56.74402822-47.59176562c2.74567878-2.74567878 7.3218101-2.74567878 10.06748888 0l11.8979414 9.15226263z" fill="#FFD527" p-id="5839"></path><path d="M403.37120417 111.76299433h13.72839394v56.74402822h-13.72839394z" fill="#961919" p-id="5840"></path><path d="M466.52181623 119.08480442H353.94898603c-3.66090506 0-7.3218101-2.74567878-7.32181009-7.32181009s2.74567878-7.3218101 7.32181009-7.3218101h112.5728302c3.66090506 0 7.3218101 2.74567878 7.32181007 7.3218101s-3.66090506 7.3218101-7.32181007 7.32181009z" fill="#961919" p-id="5841"></path><path d="M416.18437184 751.50615127l-43.93086058 0.91522625c-1.83045253 0-3.66090506 1.83045253-3.66090504 3.66090505l2.74567879 43.93086055v0.91522626c0 4.5761313-5.49135757 5.49135757-7.3218101 1.83045253l-14.64362018-42.10040804s0-0.91522626-0.91522627-0.91522625c-0.91522626-1.83045253-2.74567878-1.83045253-4.57613131-1.83045252l-37.52427671 14.64362019-3.66090505 1.83045251c-4.5761313 1.83045253-7.3218101-3.66090506-3.66090507-6.40658383l34.77859795-26.54156158c1.83045253-0.91522626 1.83045253-3.66090506 0.91522627-5.49135759l-28.3720141-33.86337169c-2.74567878-3.66090506 1.83045253-8.23703635 4.5761313-5.49135755l2.74567877 1.83045253 33.86337169 23.79588278c1.83045253 0.91522626 4.5761313 0.91522626 5.49135756-0.91522626v-0.91522624l23.79588282-36.60905047c1.83045253-3.66090506 6.40658382-1.83045253 7.3218101 1.83045252v1.83045252l-12.81316767 42.10040803c-0.91522626 1.83045253 0.91522626 4.5761313 2.74567876 4.57613133l43.01563434 10.98271514c4.5761313 0 3.66090506 6.40658382-0.91522627 6.40658383z" fill="#FFFFFF" p-id="5842"></path><path d="M366.76215369 808.25017948c-2.74567878 0-5.49135757-1.83045253-6.40658384-4.57613131l-14.64362017-42.10040802-41.18518176 16.4740727c-3.66090506 0.91522626-7.3218101 0-9.15226264-3.66090505-1.83045253-2.74567878-0.91522626-7.3218101 1.83045255-9.15226261l34.77859793-27.45678784-28.37201413-34.77859798c-2.74567878-2.74567878-1.83045253-6.40658382 0-9.1522626 2.74567878-2.74567878 6.40658382-2.74567878 9.15226264-0.91522626l2.74567877 1.83045252 33.86337169 23.7958828 3.66090503 1.83045254-2.74567879-1.83045254 23.7958828-36.60905047c1.83045253-2.74567878 4.5761313-3.66090506 7.3218101-2.74567876 2.74567878 0.91522626 5.49135757 3.66090506 5.49135761 6.40658382v2.74567877l-12.81316771 42.10040805 43.01563434 11.8979414c3.66090506 0.91522626 5.49135757 4.5761313 5.49135755 7.3218101 0 3.66090506-3.66090506 6.40658382-7.3218101 6.40658383l-43.93086055 0.91522627 2.74567876 43.93086054c0 4.5761313-1.83045253 7.3218101-5.49135755 8.23703636-0.91522626-0.91522626-0.91522626-0.91522626-1.83045253-0.91522626z m-15.55884644-51.25267064c0.91522626 0.91522626 0.91522626 0.91522626 0.91522626 1.83045252l14.64362018 41.18518176 0.91522626-0.91522624-2.74567878-43.01563431c0-1.83045253 0.91522626-3.66090506 1.83045252-5.49135757 0.91522626-1.83045253 2.74567878-2.74567878 5.49135757-2.74567877l43.93086058-0.91522628-43.01563433-11.89794141c-1.83045253-0.91522626-3.66090506-1.83045253-4.57613129-3.66090503-0.91522626-1.83045253-0.91522626-3.66090506-0.91522627-5.49135758l12.81316766-42.10040803-23.79588279 36.60905047c-0.91522626 1.83045253-2.74567878 3.66090506-4.57613131 3.66090506s-3.66090506 0-5.49135757-0.91522627l-36.60905046-25.62633535 27.45678785 34.77859796c0.91522626 1.83045253 1.83045253 3.66090506 1.83045252 5.49135758 0 1.83045253-0.91522626 3.66090506-2.74567879 4.57613129l-34.77859793 26.5415616 3.66090504-0.91522627 37.52427673-14.64362017c2.74567878 0 6.40658382 0.91522626 8.23703635 3.66090504z m-5.49135757 4.57613131z" fill="#961919" p-id="5843"></path><path d="M416.18437184 751.50615127l-43.93086058 0.91522625c-1.83045253 0-3.66090506 1.83045253-3.66090504 3.66090505l2.74567879 43.93086055-13.72839393-39.35472925c-0.91522626-1.83045253-2.74567878-2.74567878-4.57613132-1.83045251l-3.66090503 1.83045251c-0.91522626-1.83045253-2.74567878-1.83045253-4.57613133-1.83045251l-37.52427672 14.64362019c-0.91522626-1.83045253-0.91522626-3.66090506 0.91522628-5.49135758l34.77859794-26.54156158c1.83045253-0.91522626 1.83045253-3.66090506 0.91522625-5.49135759l-28.37201411-33.86337169c-0.91522626-0.91522626-0.91522626-2.74567878-0.91522625-3.66090502l33.86337167 23.79588278c1.83045253 0.91522626 4.5761313 0.91522626 5.49135757-0.91522626v-0.91522624l2.74567879 1.8304525c1.83045253 0.91522626 4.5761313 0.91522626 5.49135758-0.91522626l22.88065652-35.69382419v1.83045252l-12.81316766 42.10040803c-0.91522626 1.83045253 0.91522626 4.5761313 2.74567877 4.57613133l43.01563432 10.98271514c3.66090506 0 2.74567878 6.40658382-1.83045251 6.40658383z" fill="#F9F18F" p-id="5844"></path><path d="M416.18437184 751.50615127l-43.93086058 0.91522625c-1.83045253 0-3.66090506 1.83045253-3.66090504 3.66090505l2.74567879 43.93086055-10.06748889-27.45678783-0.91522627-15.55884645c0-1.83045253 1.83045253-3.66090506 3.66090506-3.66090504l43.93086056-0.91522628c4.5761313 0 5.49135757-6.40658382 0.91522628-7.32181008l-43.01563433-10.98271514c-1.83045253-0.91522626-3.66090506-2.74567878-2.74567877-4.57613133l6.40658383-21.05020401 14.6436202-22.88065654v1.83045252l-12.81316767 42.10040803c-0.91522626 1.83045253 0.91522626 4.5761313 2.74567876 4.57613133l43.01563434 10.98271514c4.5761313 0 3.66090506 6.40658382-0.91522627 6.40658383z" fill="#F4DD58" p-id="5845"></path><path d="M366.76215369 808.25017948c-2.74567878 0-5.49135757-1.83045253-6.40658384-4.57613131l-14.64362017-42.10040802-41.18518176 16.4740727c-3.66090506 0.91522626-7.3218101 0-9.15226264-3.66090505-1.83045253-2.74567878-0.91522626-7.3218101 1.83045255-9.15226261l34.77859793-27.45678784-28.37201413-34.77859798c-2.74567878-2.74567878-1.83045253-6.40658382 0-9.1522626 2.74567878-2.74567878 6.40658382-2.74567878 9.15226264-0.91522626l36.60905046 25.62633532 3.66090503 1.83045254-2.74567879-1.83045254 23.7958828-36.60905047c1.83045253-2.74567878 5.49135757-4.5761313 9.15226262-2.74567876s4.5761313 5.49135757 3.66090509 8.23703634l-12.81316771 42.10040803 43.01563434 11.89794142c3.66090506 0.91522626 5.49135757 4.5761313 5.49135755 7.32181009 0 3.66090506-3.66090506 6.40658382-7.3218101 6.40658383l-43.93086055 0.91522626 0.91522625 16.47407272 1.83045251 28.37201409c0 3.66090506-1.83045253 6.40658382-5.49135755 7.3218101h-1.83045253z m-15.55884644-51.25267064c0.91522626 0.91522626 0.91522626 0.91522626 0.91522626 1.83045252l14.64362018 41.18518176-1.83045252-44.84608681c0-1.83045253 0.91522626-3.66090506 1.83045252-5.49135757 0.91522626-1.83045253 2.74567878-2.74567878 5.49135757-2.74567879l43.93086058-0.91522625-43.01563433-11.8979414c-1.83045253-0.91522626-3.66090506-1.83045253-4.57613129-3.66090506-0.91522626-1.83045253-0.91522626-3.66090506-0.91522627-5.49135756l12.81316766-42.10040804-23.79588279 36.60905044c-0.91522626 1.83045253-2.74567878 3.66090506-4.57613131 3.66090508s-3.66090506 0-5.49135757-0.91522629l-36.60905046-25.62633531 27.45678785 34.77859795c0.91522626 1.83045253 1.83045253 3.66090506 1.83045252 5.49135755 0 1.83045253-0.91522626 3.66090506-2.74567879 4.57613133l-34.77859793 26.54156158 10.98271514-3.66090503 30.20246663-11.89794142c2.74567878 0.91522626 6.40658382 1.83045253 8.23703635 4.57613132z m-5.49135757 4.57613131zM309.10289921 253.62306491c-1.83045253 0-3.66090506-0.91522626-5.49135758-2.74567881-2.74567878-2.74567878-1.83045253-7.3218101 0.91522629-10.06748889l17.38929897-14.64362018c2.74567878-2.74567878 7.3218101-1.83045253 10.06748887 0.91522625 2.74567878 2.74567878 1.83045253 7.3218101-0.91522627 10.06748888L313.67903051 251.79261237c-1.83045253 0.91522626-3.66090506 1.83045253-4.5761313 1.83045254z" fill="#961919" p-id="5846"></path><path d="M311.848578 303.04528302c-5.49135757 0-10.98271516-0.91522626-16.47407272-3.66090504l-1.83045252-0.91522628c-8.23703635-4.5761313-13.72839391-11.8979414-14.6436202-21.05020401-0.91522626-9.15226261 2.74567878-18.30452524 10.98271514-24.71110907 2.74567878-2.74567878 7.3218101-1.83045253 10.06748887 0.91522629 2.74567878 2.74567878 1.83045253 7.3218101-0.91522625 10.06748887-4.5761313 3.66090506-6.40658382 8.23703635-6.40658383 12.81316765 0 3.66090506 2.74567878 7.3218101 6.40658383 9.15226261l0.91522625 0.91522627c7.3218101 4.5761313 18.30452524 3.66090506 24.71110908-1.83045253l72.3028747-59.48970701c5.49135757-4.5761313 13.72839391-4.5761313 19.21975149 0l70.47242215 58.57448076c7.3218101 6.40658382 18.30452524 8.23703635 25.62633532 3.66090504l0.91522627-0.91522626c1.83045253-0.91522626 3.66090506-1.83045253 4.5761313-3.66090506 1.83045253-2.74567878 3.66090506-5.49135757 2.74567879-8.23703635 0-3.66090506-1.83045253-6.40658382-5.49135758-9.1522626l-105.25102008-87.86172113c-1.83045253-1.83045253-4.5761313-1.83045253-7.3218101 0l-55.82880197 45.76131307c-2.74567878 2.74567878-7.3218101 1.83045253-10.06748888-0.91522626-2.74567878-2.74567878-1.83045253-7.3218101 0.91522627-10.06748888l55.82880195-45.76131306c7.3218101-5.49135757 17.38929897-5.49135757 24.71110907 0L524.18107072 254.53829117c5.49135757 4.5761313 9.15226261 11.8979414 10.06748887 18.30452521 0.91522626 6.40658382-1.83045253 13.72839391-6.40658383 18.30452523-2.74567878 2.74567878-5.49135757 5.49135757-9.1522626 7.32181009 0 0-0.91522626 0-0.91522628 0.91522628-12.81316766 6.40658382-28.37201411 4.5761313-40.26995553-5.49135758l-70.47242213-58.57448076H405.20165669l-72.30287468 59.48970703c-4.5761313 5.49135757-12.81316766 8.23703635-21.05020401 8.23703635zM291.71360023 473.2773677c-6.40658382 0-11.8979414-0.91522626-17.38929897-3.66090505-0.91522626 0-2.74567878-0.91522626-3.66090506-1.83045251-9.15226261-5.49135757-15.55884645-13.72839391-16.4740727-23.79588281-0.91522626-10.06748889 3.66090506-20.13497775 12.81316766-28.37201412l126.30122412-104.33579384c8.23703635-6.40658382 19.21975149-6.40658382 27.45678786 0l128.13167664 106.16624635c8.23703635 6.40658382 12.81316766 16.4740727 11.89794139 26.54156161-0.91522626 10.06748889-7.3218101 19.21975149-16.47407268 24.71110907-0.91522626 0-0.91522626 0.91522626-1.83045255 0.91522625l-0.91522626 0.91522627c-15.55884645 7.3218101-32.94814542 3.66090506-46.67653934-7.32181009l-85.11604233-70.47242217c-0.91522626-0.91522626-2.74567878-0.91522626-3.66090505 0l-86.94649487 72.30287468c-1.83045253 1.83045253-3.66090506 2.74567878-6.40658382 4.57613131-7.3218101 2.74567878-13.72839391 3.66090506-21.05020404 3.66090505z m242.53495936-15.55884645l4.57613131 5.49135758-2.74567879-6.40658382 0.91522628-0.91522628c5.49135757-3.66090506 10.06748889-8.23703635 10.06748885-13.72839395 0.91522626-5.49135757-1.83045253-10.06748889-6.40658381-14.64362017l-128.13167665-106.16624636c-2.74567878-2.74567878-7.3218101-2.74567878-10.06748887 0L276.15475377 426.60082836c-5.49135757 4.5761313-8.23703635 10.98271516-8.23703634 16.47407273 0.91522626 5.49135757 3.66090506 10.06748889 10.06748887 13.72839392 0.91522626 0 0.91522626 0.91522626 1.83045252 0.91522624 8.23703635 3.66090506 18.30452524 3.66090506 25.62633535-0.91522624 1.83045253-0.91522626 2.74567878-1.83045253 3.66090504-2.7456788l86.94649489-72.30287468c6.40658382-4.5761313 14.64362017-4.5761313 21.05020401 0l85.11604232 70.47242215c10.06748889 7.3218101 21.96543027 10.06748889 32.03291916 5.49135757z" fill="#961919" p-id="5847"></path><path d="M526.92674951 913.50119959H287.13746894c-33.86337166 0-61.32015954-30.20246662-61.32015956-67.72674337l45.7613131-391.71684001 8.23703634 3.66090504c10.06748889 4.5761313 21.96543027 2.74567878 29.28724039-3.66090504l86.94649489-72.30287468c6.40658382-4.5761313 14.64362017-4.5761313 21.05020401 0l85.11604232 70.47242215c9.15226261 7.3218101 21.96543027 10.06748889 31.1176929 5.49135757l9.15226261-3.66090504 45.7613131 391.71684001c0 36.60905046-27.45678784 67.72674338-61.32015953 67.72674337zM282.56133761 472.36214143l-43.93086054 373.41231479c0 29.28724036 21.05020402 53.08312319 47.59176558 53.08312316h240.70450686c26.54156159 0 47.59176558-23.79588279 47.59176559-53.08312316L531.5028808 472.36214143c-12.81316766 2.74567878-26.54156159-0.91522626-37.52427671-10.06748887l-85.11604234-70.47242216c-0.91522626-0.91522626-2.74567878-0.91522626-3.66090506 0l-86.94649485 72.30287468c-10.06748889 8.23703635-22.88065653 10.98271516-35.69382423 8.23703635z" fill="#961919" p-id="5848"></path><path d="M539.73991715 427.51605461L412.52346678 322.26503451c-2.74567878-2.74567878-7.3218101-2.74567878-10.06748887 0l-128.13167665 105.2510201 17.38929897-146.43620187 9.15226261 5.49135757c7.3218101 4.5761313 18.30452524 3.66090506 24.71110907-1.83045253l72.30287469-59.48970701c5.49135757-4.5761313 13.72839391-4.5761313 19.21975151 0l70.47242214 58.57448076c3.66090506 3.66090506 9.15226261 5.49135757 14.64362018 6.40658382 4.5761313 0 8.23703635 0 10.98271515-1.83045252l9.15226259-6.40658384 1.83045255 10.98271516 15.55884643 134.53826046zM407.03210922 306.70618807c4.5761313 0 10.06748889 1.83045253 13.72839392 4.5761313l34.77859793 28.37201411 66.8115171 54.91357571-10.98271511-93.3530787c-3.66090506 0.91522626-7.3218101 0.91522626-10.98271515 0.91522625-8.23703635-0.91522626-15.55884645-3.66090506-21.96543029-9.15226259L407.94733547 234.40331339h-1.83045251l-72.30287469 59.48970701c-8.23703635 7.3218101-20.13497775 9.15226261-31.11769288 6.40658384l-10.98271516 93.3530787 100.67488881-83.28558984c4.5761313-1.83045253 10.06748889-3.66090506 14.64362018-3.66090503zM306.35722044 850.35058752c-4.5761313 0-9.15226261-0.91522626-12.81316768-1.83045251-24.71110907-7.3218101-38.43950299-32.94814542-31.11769291-57.65925449 0.91522626-3.66090506 4.5761313-5.49135757 8.23703635-4.57613131 3.66090506 0.91522626 5.49135757 4.5761313 4.57613132 8.23703635-5.49135757 17.38929897 4.5761313 35.6938242 21.96543031 40.2699555 1.83045253 0.91522626 4.5761313 0.91522626 6.4065838 0.91522629 0-5.49135757 0-10.06748889 1.83045254-14.6436202 0.91522626-3.66090506 4.5761313-5.49135757 8.23703634-4.57613131 3.66090506 0.91522626 5.49135757 4.5761313 4.57613133 8.23703634-1.83045253 5.49135757-1.83045253 10.98271516-0.91522628 16.47407274l1.83045253 7.32181009-7.32181009 0.91522625c-1.83045253 0.91522626-3.66090506 0.91522626-5.49135756 0.91522626z" fill="#961919" p-id="5849"></path><path d="M350.28808097 881.46828043c-4.5761313 0-9.15226261-0.91522626-13.72839391-1.83045253-16.4740727-4.5761313-28.37201411-18.30452524-32.03291914-34.77859793l-1.83045253-7.32181009 7.32181009-0.91522627c12.81316766-1.83045253 22.88065653-10.06748889 26.54156158-22.88065653 0.91522626-3.66090506 4.5761313-5.49135757 8.23703634-4.57613134 3.66090506 0.91522626 5.49135757 4.5761313 4.57613133 8.23703634-4.5761313 14.64362017-15.55884645 26.54156159-30.20246664 31.11769293 3.66090506 8.23703635 10.98271516 15.55884645 20.13497776 18.30452523 8.23703635 2.74567878 17.38929897 1.83045253 24.71110906-2.74567879 7.3218101-4.5761313 12.81316766-10.98271516 15.55884645-19.21975148 0.91522626-3.66090506 4.5761313-5.49135757 8.23703633-4.57613132 3.66090506 0.91522626 5.49135757 4.5761313 4.57613135 8.23703636-3.66090506 11.8979414-10.98271516 21.05020402-21.96543029 27.45678783-4.5761313 3.66090506-12.81316766 5.49135757-20.13497778 5.49135759z" fill="#961919" p-id="5850"></path><path d="M404.28643044 885.12918546c-25.62633533 0-46.67653934-21.05020402-46.67653936-46.67653932 0-3.66090506 2.74567878-7.3218101 7.32181009-7.32181009s7.3218101 2.74567878 7.32181009 7.32181009c0 18.30452524 14.64362017 32.94814542 32.94814543 32.94814542s32.94814542-14.64362017 32.94814542-32.94814542c0-3.66090506 2.74567878-7.3218101 7.3218101-7.32181009s7.3218101 2.74567878 7.32181009 7.32181009c-1.83045253 25.62633533-22.88065653 46.67653934-48.50699186 46.67653932z" fill="#961919" p-id="5851"></path><path d="M457.36955359 885.12918546c-21.96543027 0-42.10040802-16.4740727-45.76131305-38.43950296-0.91522626-3.66090506 1.83045253-7.3218101 5.49135757-8.23703636 3.66090506-0.91522626 7.3218101 1.83045253 8.23703635 5.49135758 2.74567878 17.38929897 20.13497775 29.28724036 37.5242767 26.54156156 17.38929897-2.74567878 29.28724036-20.13497775 26.54156162-37.52427673-0.91522626-3.66090506 1.83045253-7.3218101 5.49135756-8.23703637 3.66090506-0.91522626 7.3218101 1.83045253 8.23703637 5.49135758 4.5761313 25.62633533-12.81316766 49.42221811-38.43950302 53.08312318-2.74567878 1.83045253-4.5761313 1.83045253-7.3218101 1.83045252z" fill="#961919" p-id="5852"></path><path d="M509.53745054 864.07898145c-5.49135757 0-11.8979414-0.91522626-17.38929898-3.66090504-11.8979414-4.5761313-20.13497775-13.72839391-25.62633533-24.71110906-1.83045253-3.66090506 0-7.3218101 3.66090504-9.15226263 3.66090506-1.83045253 7.3218101 0 9.15226261 3.66090504 3.66090506 8.23703635 10.06748889 14.64362017 17.38929899 17.38929899 8.23703635 3.66090506 17.38929897 2.74567878 24.71110906 0 8.23703635-3.66090506 14.64362017-10.06748889 17.38929897-17.38929899 3.66090506-8.23703635 2.74567878-16.4740727 0-24.71110906-1.83045253-3.66090506 0-7.3218101 3.66090504-9.15226262 3.66090506-1.83045253 7.3218101 0 9.15226263 3.66090504 4.5761313 10.98271516 4.5761313 23.79588279 0 35.69382423-4.5761313 11.8979414-13.72839391 20.13497775-24.71110906 25.62633532-5.49135757 1.83045253-11.8979414 2.74567878-17.38929897 2.74567878z" fill="#961919" p-id="5853"></path></svg>